<svg width="175" height="151" viewBox="0 0 175 151" fill="none" xmlns="http://www.w3.org/2000/svg">
<g clip-path="url(#clip0_12465_13658)">
<path fill-rule="evenodd" clip-rule="evenodd" d="M30.1615 108.355C29.8882 109.366 31.3843 109.45 31.4626 108.613C31.4893 108.31 31.3776 107.823 30.7086 107.873C30.4895 107.891 30.2691 107.999 30.1657 108.362L30.1615 108.355Z" fill="white"/>
<path fill-rule="evenodd" clip-rule="evenodd" d="M30.6253 102.855C30.4485 103.397 30.7545 103.82 31.3297 103.781C32.1043 103.724 32.256 102.429 31.3094 102.369C30.9718 102.351 30.7406 102.495 30.633 102.851L30.6253 102.855Z" fill="white"/>
<path fill-rule="evenodd" clip-rule="evenodd" d="M36.5351 100.864C36.3638 101.324 36.5517 101.73 36.9581 101.821C37.9565 102.052 38.2381 100.499 37.2168 100.429C36.9064 100.406 36.6628 100.527 36.5351 100.864Z" fill="white"/>
<path fill-rule="evenodd" clip-rule="evenodd" d="M39.472 95.621C39.7485 96.5272 41.3149 95.9073 40.7714 94.985C40.4419 94.4254 39.2979 94.5904 39.472 95.621Z" fill="white"/>
<path fill-rule="evenodd" clip-rule="evenodd" d="M40.9194 120.765C39.4698 121.213 38.4111 119.681 39.3366 118.718C39.9802 118.045 41.6953 117.833 42.7221 118.377C42.6985 119.205 41.8251 120.489 40.9117 120.769L40.9194 120.765ZM41.907 118.804C41.2377 118.705 40.1513 118.829 39.8288 119.21C39.4909 119.6 39.8173 120.191 40.4821 120.133C41.1197 120.081 41.6518 119.348 41.907 118.804Z" fill="white"/>
<path fill-rule="evenodd" clip-rule="evenodd" d="M42.3761 95.6781C42.1147 96.6933 43.6731 96.7639 43.6785 95.846C43.6812 95.1086 42.5742 94.9157 42.3761 95.6781Z" fill="white"/>
<path fill-rule="evenodd" clip-rule="evenodd" d="M48.3962 113.698C49.4735 114.225 49.1826 116.002 48.608 116.896C47.9959 117.851 47.6049 117.473 47.078 116.582C46.687 115.926 46.4461 115.309 46.6205 114.539C46.8163 113.698 47.5454 113.278 48.3921 113.69L48.3962 113.698ZM47.9641 116.585C48.4567 115.983 48.7138 114.532 47.9386 114.291C47.4914 114.143 47.2183 114.468 47.2478 115.098C47.2721 115.682 47.6542 116.303 47.9682 116.592L47.9641 116.585Z" fill="white"/>
<path fill-rule="evenodd" clip-rule="evenodd" d="M50.5526 88.6944C50.2639 89.7143 51.7853 89.8643 51.8981 88.9984C52.0012 88.2072 50.7954 87.8484 50.5526 88.6944Z" fill="white"/>
<path fill-rule="evenodd" clip-rule="evenodd" d="M51.224 103.164C51.4002 103.159 51.7296 103.44 51.8588 103.57C52.3705 104.061 52.8892 104.937 52.9235 105.595C52.9699 106.406 52.5464 107.1 51.7227 107.084C50.636 107.059 50.1399 106.151 50.336 104.902C50.4256 104.327 50.7188 103.185 51.224 103.164ZM51.2701 104.104C50.7705 104.878 50.8636 106.927 52.1489 106.209C52.359 105.599 52.1179 105.112 51.8552 104.695C51.6991 104.441 51.5015 104.109 51.2778 104.1L51.2701 104.104Z" fill="white"/>
<path fill-rule="evenodd" clip-rule="evenodd" d="M50.8881 121.841C51.1345 123.211 51.9324 124.534 52.889 125.782C53.5158 126.601 54.2555 127.388 55.159 128.147C55.4078 128.352 55.8349 128.76 56.0164 128.802C56.3593 128.867 56.7047 128.603 57.0109 128.618C54.4513 126.826 52.3198 124.645 50.8958 121.837L50.8881 121.841Z" fill="white"/>
<path fill-rule="evenodd" clip-rule="evenodd" d="M55.1813 78.7574C55.1813 78.7574 55.2019 78.796 55.2257 78.8032C57.0401 78.7765 58.0602 77.4148 58.7884 75.9906C59.4273 74.7336 59.9213 73.206 59.9452 71.6914C59.3607 72.7901 58.8275 74.0403 58.2215 75.2101C57.4629 76.6705 56.6936 78.1664 55.1813 78.7574Z" fill="white"/>
<path fill-rule="evenodd" clip-rule="evenodd" d="M56.6966 118.155C57.8103 118.026 59.3812 118.955 59.3445 119.462C59.331 119.678 58.7746 120.105 58.4157 120.308C57.3776 120.893 55.2258 121.051 55.4119 119.449C55.5007 118.706 56.0009 118.229 56.6966 118.155ZM56.1411 119.865C56.8951 120.326 57.9963 119.896 58.4129 119.374C57.8335 118.849 55.7327 118.452 56.1411 119.865Z" fill="white"/>
<path fill-rule="evenodd" clip-rule="evenodd" d="M57.4981 84.737C57.2507 85.8341 58.9238 85.8035 58.8565 84.8053C58.8161 84.2103 57.7005 83.8528 57.4981 84.737Z" fill="white"/>
<path fill-rule="evenodd" clip-rule="evenodd" d="M61.0731 84.454C60.848 85.3701 62.2238 85.638 62.4119 84.8013C62.6072 83.9409 61.2976 83.5182 61.0731 84.454Z" fill="white"/>
<path fill-rule="evenodd" clip-rule="evenodd" d="M62.0521 78.1708C61.6949 79.267 63.325 79.3788 63.3975 78.4747C63.4626 77.7238 62.3161 77.383 62.0521 78.1708Z" fill="white"/>
<path fill-rule="evenodd" clip-rule="evenodd" d="M62.0078 106.619C63.345 106.072 64.0838 107.526 64.0213 108.504C63.9808 109.153 63.5336 110.396 63.1229 110.427C62.8177 110.451 62.4525 110.011 62.1357 109.623C61.6526 109.037 61.2611 108.361 61.3957 107.573C61.4757 107.073 61.6591 106.765 62.0078 106.619ZM63.0309 109.532C63.4284 108.752 63.5787 106.991 62.2581 107.29C61.7287 108.121 62.4626 109.12 63.0309 109.532Z" fill="white"/>
<path fill-rule="evenodd" clip-rule="evenodd" d="M63.2127 114.417C63.7137 113.831 65.237 113.075 66.2644 113.36C67.4893 113.699 67.2121 115.409 66.2783 115.799C65.174 116.261 63.0699 115.19 63.2011 114.563C63.2042 114.531 63.186 114.442 63.205 114.421L63.2127 114.417ZM64.0883 114.605C64.5008 115.19 66.4863 115.668 66.4451 114.347C65.8597 113.607 64.6108 114.226 64.0883 114.605Z" fill="white"/>
<path fill-rule="evenodd" clip-rule="evenodd" d="M66.2122 82.0405C67.6308 82.2954 67.3854 80.4078 66.2772 80.7327C65.7445 80.8886 65.6596 81.7695 66.2122 82.0405Z" fill="white"/>
<path fill-rule="evenodd" clip-rule="evenodd" d="M67.2865 120.858C67.6161 120.453 68.1602 120.281 68.5911 119.991C68.1518 119.43 67.7096 118.623 67.5697 117.971C67.7724 118.35 68.0461 118.602 68.3184 118.943C68.5422 119.231 68.8402 119.788 69.1563 119.877C69.4487 119.959 69.7665 119.829 69.9991 119.873C70.7282 120.01 71.2698 120.724 70.9013 121.558C71.3397 121.95 71.9464 122.192 72.3425 122.616C71.9365 122.675 71.8261 122.933 71.5312 122.902C71.3502 122.879 71.1709 122.637 70.9866 122.497C70.8343 122.38 70.5049 122.099 70.442 122.092C70.3987 122.086 70.0812 122.365 69.9565 122.392C69.517 122.518 69.2503 122.373 68.8756 122.434C69.1341 122.564 69.3634 122.769 69.6034 122.939C69.8553 123.113 70.153 123.242 70.3246 123.488C70.0448 123.578 69.8498 123.752 69.5577 123.819C68.194 122.868 67.0303 121.642 66.2219 120.225C65.954 119.761 65.6185 119.265 65.5514 118.694C66.0632 119.464 66.6172 120.202 67.2705 120.847L67.2865 120.858ZM67.9762 121.125C68.3975 121.745 70.3675 122.232 70.333 120.868C69.7095 120.167 68.4879 120.782 67.9762 121.125Z" fill="white"/>
<path fill-rule="evenodd" clip-rule="evenodd" d="M70.2172 68.6577C70.4095 68.9426 71.0043 68.9026 71.3886 68.7665C72.4286 68.3887 73.353 67.108 73.916 66.0806C74.5904 64.8343 74.9586 63.2946 75.0192 61.83C74.4044 62.9648 73.8626 64.3289 73.1399 65.6706C72.8307 66.244 72.4776 66.7911 72.0241 67.3919C71.5932 67.9608 71.1251 68.7385 70.2291 68.6613L70.2172 68.6577Z" fill="white"/>
<path fill-rule="evenodd" clip-rule="evenodd" d="M71.1387 106.852C71.8402 106.566 72.6582 107.073 72.8899 107.506C73.2541 108.186 73.0307 109.161 72.6774 109.837C72.495 110.183 72.1342 110.735 71.8321 110.727C71.5223 110.724 71.1681 110.118 70.9498 109.748C70.5589 109.092 70.3525 108.446 70.5356 107.712C70.6589 107.218 70.8636 106.969 71.1387 106.852ZM71.8804 109.796C72.0704 109.446 72.4086 108.927 72.376 108.328C72.3335 107.376 71.086 107.069 71.1575 108.354C71.189 108.914 71.5479 109.547 71.8804 109.796Z" fill="white"/>
<path fill-rule="evenodd" clip-rule="evenodd" d="M74.3132 100.457C75.2239 100.358 75.7997 100.895 76.2805 101.403C76.6643 101.804 77.1813 102.343 77.0583 102.707C76.9753 102.961 76.0845 103.209 75.4814 103.233C74.0326 103.293 73.0614 102.5 73.3803 101.295C73.5185 100.774 73.8947 100.493 74.3091 100.45L74.3132 100.457ZM76.184 102.429C76.0643 102.076 75.819 101.859 75.4783 101.594C75.2377 101.405 74.7726 101.037 74.3331 101.163C73.9792 101.263 73.9188 101.763 74.0926 102.087C74.3865 102.636 75.5724 102.568 76.184 102.429Z" fill="white"/>
<path fill-rule="evenodd" clip-rule="evenodd" d="M76.163 110.298C76.4532 110.58 77.3256 111.764 77.098 112.175C76.9116 112.513 75.7802 112.572 75.0671 112.446C74.0543 112.263 73.3561 111.553 73.5706 110.543C73.8679 109.13 75.454 109.624 76.163 110.298ZM76.2787 111.758C75.9371 111.046 75.5492 110.358 74.4774 110.306C73.5561 111.276 75.1528 112.013 76.2787 111.758Z" fill="white"/>
<path fill-rule="evenodd" clip-rule="evenodd" d="M76.4519 73.2467C76.3796 73.4644 76.3551 73.5671 76.3827 73.7114C76.455 74.0507 77.2084 74.4926 77.6327 73.9671C77.9469 73.5701 77.8293 72.738 76.9923 72.8082C76.8124 72.8249 76.5606 72.93 76.4519 73.2467Z" fill="white"/>
<path fill-rule="evenodd" clip-rule="evenodd" d="M76.1063 93.7997C75.5636 93.046 75.9235 91.7693 76.8698 91.6803C77.5228 91.6191 78.1386 92.0453 78.4732 92.3733C78.985 92.8651 79.3486 93.5257 79.4527 94.2954C78.4198 94.928 76.6288 94.5344 76.1022 93.792L76.1063 93.7997ZM78.6333 93.8788C78.4548 93.5269 78.2865 93.1197 77.9405 92.8077C77.5786 92.4843 76.3261 92.0013 76.5664 93.1555C76.6975 93.7716 77.8758 93.9861 78.6369 93.867L78.6333 93.8788Z" fill="white"/>
<path fill-rule="evenodd" clip-rule="evenodd" d="M75.4263 114.711C75.4263 114.711 75.3877 114.732 75.3805 114.755C75.9296 116.152 77.1611 117.561 78.516 118.477C78.7157 118.609 79.0054 118.871 79.1508 118.883C79.4374 118.898 79.7265 118.585 79.9216 118.411C78.0117 117.553 76.6595 116.179 75.4263 114.711Z" fill="white"/>
<path fill-rule="evenodd" clip-rule="evenodd" d="M78.4502 56.9897C79.3393 55.8474 79.8807 54.3342 81.0167 53.4674C81.2164 53.3207 81.4468 53.2868 81.6016 53.0747C80.809 52.9123 80.1055 53.269 79.6506 53.6817C78.8937 54.3654 78.3475 55.5728 78.4502 56.9897Z" fill="white"/>
<path fill-rule="evenodd" clip-rule="evenodd" d="M79.5791 89.9501C80.1267 89.4878 81.4335 89.534 81.6692 90.3825C81.923 91.3207 81.341 92.0898 80.8533 92.5896C80.6285 92.8194 79.9783 93.5355 79.5476 93.418C79.3341 93.3533 79.2463 93.0224 79.1561 92.7425C78.9969 92.2409 78.9403 91.4856 79.0548 90.9568C79.177 90.424 79.3033 90.1773 79.5714 89.9542L79.5791 89.9501ZM79.8248 92.5436C80.4494 92.1694 81.2149 91.3716 80.9183 90.4464C79.7254 89.8519 79.4634 91.6829 79.8248 92.5436Z" fill="white"/>
<path fill-rule="evenodd" clip-rule="evenodd" d="M82.1971 109.484C82.764 110.264 82.3205 111.496 81.4805 111.598C80.5116 111.719 79.7761 110.939 79.3849 110.413C79.1156 110.04 78.6863 109.275 78.9434 108.939C79.9343 108.488 81.6017 108.669 82.1971 109.484ZM79.6753 109.452C80.0354 110.124 80.5753 111.058 81.6192 110.818C82.1701 109.638 80.6806 109.232 79.6753 109.452Z" fill="white"/>
<path fill-rule="evenodd" clip-rule="evenodd" d="M81.563 97.1235C81.7751 96.7215 82.9037 95.451 83.4209 95.5818C83.7525 95.6628 83.8472 96.3779 83.8872 96.5454C84.1179 97.496 84.0272 98.5889 83.3828 99.093C82.7193 99.6173 81.6652 99.3562 81.3857 98.76C81.277 98.5198 81.2963 98.0918 81.3371 97.871C81.3953 97.5714 81.4403 97.3583 81.5594 97.1354L81.563 97.1235ZM82.1421 98.6136C83.3811 99.0342 83.4701 97.3257 83.187 96.4628C82.6634 96.8029 81.6444 97.6468 82.1421 98.6136Z" fill="white"/>
<path fill-rule="evenodd" clip-rule="evenodd" d="M83.5463 66.3946C83.3725 66.9054 83.6271 67.1768 83.8762 67.2523C84.9047 67.5768 85.2762 65.8761 84.0825 65.9484C83.8789 65.9579 83.6508 66.0701 83.5463 66.3946Z" fill="white"/>
<path fill-rule="evenodd" clip-rule="evenodd" d="M84.3903 84.809C84.7657 84.9163 85.2783 85.2982 85.656 85.7623C85.9567 86.1383 86.4531 86.9169 86.3331 87.2496C86.2167 87.5705 85.1742 87.721 84.3032 87.5607C83.3261 87.3877 82.6457 86.6182 82.7519 85.7956C82.8652 84.9492 83.4412 84.5215 84.398 84.8049L84.3903 84.809ZM85.4994 86.8805C85.1115 86.1931 84.7771 85.4572 83.6548 85.4216C82.8319 86.4091 84.3225 87.1327 85.4994 86.8805Z" fill="white"/>
<path fill-rule="evenodd" clip-rule="evenodd" d="M84.8534 60.9305C84.7202 61.3499 84.8554 61.6953 85.2267 61.7948C85.7286 61.9339 86.0326 61.5921 86.0905 61.4218C86.3647 60.5789 85.1188 60.0525 84.8457 60.9347L84.8534 60.9305Z" fill="white"/>
<path fill-rule="evenodd" clip-rule="evenodd" d="M87.4017 66.9156C87.5777 66.7617 87.6168 66.4821 87.6135 66.3646C87.6074 65.5921 86.3067 65.483 86.2526 66.3473C86.2176 66.9131 86.9504 67.3164 87.3939 66.9197L87.4017 66.9156Z" fill="white"/>
<path fill-rule="evenodd" clip-rule="evenodd" d="M88.4615 58.1637C88.3747 58.5583 88.5537 58.9299 88.9827 58.9886C89.951 59.1265 90.0467 57.6531 89.0935 57.6364C88.8544 57.6351 88.5622 57.7021 88.4538 58.1679L88.4615 58.1637Z" fill="white"/>
<path fill-rule="evenodd" clip-rule="evenodd" d="M89.1932 101.779C90.0045 102.329 90.1688 103.843 89.1638 104.212C87.8369 104.703 86.3746 102.901 86.2422 101.818C86.2281 101.736 86.3001 101.648 86.3428 101.635C87.0844 101.238 88.5057 101.312 89.1932 101.779ZM87.0706 102.14C87.4497 102.792 87.9819 103.731 89.0145 103.506C89.6501 102.41 88.1057 101.864 87.0706 102.14Z" fill="white"/>
<path fill-rule="evenodd" clip-rule="evenodd" d="M90.1861 89.6021C90.6258 89.6252 91.0247 89.8691 91.1914 90.2175C91.5915 91.0575 90.9203 92.1428 90.4136 92.6628C90.2536 92.828 89.5156 93.4916 89.1562 93.3957C88.6033 93.2541 88.5403 91.5772 88.6214 91.1161C88.7789 90.1665 89.3458 89.5547 90.1979 89.6057L90.1861 89.6021ZM89.3823 92.5187C90.0281 92.2028 90.8157 91.3535 90.4758 90.4216C89.2881 89.874 89.0477 91.6338 89.3823 92.5187Z" fill="white"/>
<path fill-rule="evenodd" clip-rule="evenodd" d="M91.7709 96.2923C91.969 96.0868 92.6539 95.4913 92.9773 95.5569C93.3676 95.6363 93.5796 96.7561 93.6019 97.132C93.6757 98.4948 92.8793 99.5875 91.7076 99.3297C91.0094 99.1765 90.7768 98.575 90.9494 97.7466C91.0766 97.1116 91.401 96.6595 91.7709 96.2923ZM91.6618 98.5387C92.9093 99.1239 93.1203 97.2904 92.7511 96.4338C92.1663 96.8265 91.398 97.5263 91.6618 98.5387Z" fill="white"/>
<path fill-rule="evenodd" clip-rule="evenodd" d="M96.1397 106.215C96.5737 106.45 96.9618 106.73 97.4683 106.896C97.3028 107.144 97.0763 107.315 96.7853 107.421C96.4592 107.257 96.1789 107.049 95.8796 106.862C95.7596 107.194 95.5058 107.37 95.3734 107.68C95.5737 107.831 95.9036 107.853 96.054 108.041C95.7908 108.162 95.6206 108.383 95.329 108.469C94.2981 107.917 93.3501 107.112 92.7252 106.223C92.4968 105.908 92.2667 105.534 92.2145 105.214C92.8435 105.832 93.4957 106.437 94.2318 106.958C93.8544 106.365 93.4717 105.446 93.7977 104.495C93.8253 104.361 93.5792 104.254 93.7218 104.168C93.7632 104.245 93.82 104.314 93.8959 104.363C94.1251 103.733 95.305 103.728 95.7765 104.182C95.5481 103.867 95.3387 103.531 95.1715 103.163C95.7801 103.613 96.2668 104.188 96.8759 104.657C97.4851 105.127 98.196 105.452 98.8747 105.885C98.6347 105.993 98.5042 106.232 98.2441 106.322C97.3428 105.919 96.7394 105.238 96.0789 104.617C96.3085 104.971 96.33 105.735 96.1356 106.207L96.1397 106.215ZM95.0224 106.913C95.4042 106.549 95.8963 105.092 95.277 104.678C95.1691 104.607 94.7384 104.489 94.5768 104.595C93.8998 105.057 94.7311 106.591 95.0224 106.913Z" fill="white"/>
<path fill-rule="evenodd" clip-rule="evenodd" d="M94.4057 85.8804C94.7031 85.8604 95.1476 86.4678 95.347 86.7289C95.6318 87.0937 95.9137 87.6389 95.986 87.9781C96.3522 89.7015 94.6341 90.2236 93.8062 89.364C93.471 89.0164 93.381 88.3286 93.4157 87.8923C93.47 87.177 93.8151 85.9281 94.4057 85.8804ZM95.0912 89.0539C95.5201 88.5557 95.2616 87.8687 94.986 87.4096C94.8215 87.1396 94.6085 86.8161 94.4085 86.8137C93.9708 87.5553 93.8313 89.281 95.0912 89.0539Z" fill="white"/>
<path fill-rule="evenodd" clip-rule="evenodd" d="M94.6303 94.3737C95.451 94.4216 96.4003 94.8581 96.6304 95.5106C96.9025 96.26 96.4975 97.1929 95.7869 97.2949C94.8186 97.4355 94.2514 96.7844 93.821 96.259C93.496 95.8562 92.9574 95.1102 93.1988 94.6329C93.5767 94.4107 94.1395 94.348 94.6148 94.3819L94.6303 94.3737ZM93.9409 95.0909C94.2979 95.7948 94.7341 96.6652 95.8324 96.5446C96.4632 95.4211 95.0458 94.9269 93.9409 95.0909Z" fill="white"/>
<path fill-rule="evenodd" clip-rule="evenodd" d="M95.5972 53.1891C95.4921 53.494 95.5321 53.6616 95.6143 53.7966C95.9272 54.3252 97.0411 54.0669 96.8601 53.2091C96.7784 52.8152 95.8432 52.4607 95.5972 53.1891Z" fill="white"/>
<path fill-rule="evenodd" clip-rule="evenodd" d="M96.9609 73.3146C97.6743 73.589 97.9848 74.7256 97.8176 75.75C97.7545 76.1518 97.5457 76.9498 97.1402 77.0277C96.8243 77.0874 96.0044 76.3728 95.657 75.8725C95.3019 75.3764 95.0748 74.6924 95.2299 74.0724C95.3992 73.4049 96.0375 72.9636 96.9532 73.3187L96.9609 73.3146ZM97.0091 76.1332C97.4217 75.1962 97.1022 73.3185 95.9366 74.1116C95.7218 74.6941 96.0815 75.2176 96.3781 75.5859C96.5853 75.8429 96.7859 76.1433 97.0091 76.1332Z" fill="white"/>
<path fill-rule="evenodd" clip-rule="evenodd" d="M97.2657 48.8644C96.8757 50.0479 98.7638 49.9917 98.5287 48.8844C98.4558 48.5256 97.5112 48.1164 97.2657 48.8644Z" fill="white"/>
<path fill-rule="evenodd" clip-rule="evenodd" d="M96.0606 86.576C96.9702 85.8801 99.1948 86.0813 99.5943 87.1802C99.8156 87.7977 99.6512 88.6416 98.9445 88.8807C98.0904 89.1789 97.2191 88.5912 96.6867 88.0608C96.3355 87.7018 95.7909 87.0188 95.9572 86.6612C95.987 86.6054 96.0107 86.6126 96.0565 86.5682L96.0606 86.576ZM96.7857 86.9834C97.1292 87.6249 97.8363 88.3702 98.791 88.1673C99.5466 87.0168 97.701 86.6325 96.7857 86.9834Z" fill="white"/>
<path fill-rule="evenodd" clip-rule="evenodd" d="M97.9139 53.7292C97.7371 54.2714 98.0952 54.736 98.7151 54.613C99.2299 54.5164 99.5402 53.1469 98.411 53.284C98.243 53.3043 98.0149 53.4165 97.9217 53.725L97.9139 53.7292Z" fill="white"/>
<path fill-rule="evenodd" clip-rule="evenodd" d="M99.2908 42.2702C99.2908 42.2702 99.3429 42.3119 99.3785 42.3227C100.994 42.1838 101.845 40.9523 102.509 39.7612C103.188 38.5423 103.749 37.0286 103.861 35.2881C103.217 36.3491 102.695 37.5833 102.093 38.7609C101.372 40.1614 100.624 41.5862 99.2908 42.2702Z" fill="white"/>
<path fill-rule="evenodd" clip-rule="evenodd" d="M96.7229 102.125C96.7834 102.46 96.9768 102.784 97.1892 103.088C97.7733 103.919 98.6768 104.679 99.6098 105.233C99.8647 105.097 100.112 104.965 100.242 104.706C98.786 104.103 97.7506 103.116 96.7193 102.136L96.7229 102.125Z" fill="white"/>
<path fill-rule="evenodd" clip-rule="evenodd" d="M100.468 80.05C101.222 80.0841 102.622 80.6768 102.616 81.1476C102.609 81.4694 101.875 81.9721 101.485 82.2104C100.453 82.8429 98.4759 82.9564 98.7239 81.322C98.8562 80.4555 99.5219 80.0095 100.472 80.0578L100.468 80.05ZM99.4439 81.8315C100.299 82.2589 101.259 81.6754 101.683 81.1499C100.997 80.6119 99.0069 80.514 99.4439 81.8315Z" fill="white"/>
<path fill-rule="evenodd" clip-rule="evenodd" d="M100.685 49.9778C100.328 50.9446 101.723 51.2119 101.922 50.4691C102.127 49.683 100.976 49.1853 100.685 49.9778Z" fill="white"/>
<path fill-rule="evenodd" clip-rule="evenodd" d="M98.1346 101.069C98.783 102.373 99.7638 103.37 101.024 104.127C101.271 103.995 101.526 103.858 101.664 103.596C100.201 103.016 99.2539 101.972 98.1346 101.069Z" fill="white"/>
<path fill-rule="evenodd" clip-rule="evenodd" d="M101.101 98.885C101.091 99.2383 101.376 99.4736 101.568 99.7585C102.132 100.57 102.899 101.353 103.8 101.885C104.077 101.807 104.431 101.578 104.432 101.358C103.067 100.756 102.061 99.8429 101.093 98.8892L101.101 98.885Z" fill="white"/>
<path fill-rule="evenodd" clip-rule="evenodd" d="M103.826 85.7099C104.432 86.1912 105.221 87.0519 105.115 88.0235C105.002 89.0385 103.703 89.3765 102.971 88.7535C102.245 88.1382 102.314 86.7087 102.65 85.8326C102.73 85.6304 102.804 85.3029 103.054 85.2881C103.341 85.1938 103.59 85.5086 103.83 85.698L103.826 85.7099ZM104.31 88.2654C104.601 87.3043 103.889 86.5514 103.247 86.1495C102.879 87.1519 103.119 88.8239 104.31 88.2654Z" fill="white"/>
<path fill-rule="evenodd" clip-rule="evenodd" d="M105.999 27.3813C106.956 25.9939 107.6 24.2465 109.148 23.5173C108.967 23.3655 108.65 23.3664 108.45 23.3837C108.009 23.4312 107.458 23.7759 107.156 24.0666C106.411 24.754 105.837 26.0955 106.007 27.3772L105.999 27.3813Z" fill="white"/>
<path fill-rule="evenodd" clip-rule="evenodd" d="M105.87 38.1113C105.714 38.5431 105.953 39.1012 106.524 39.0345C107.294 38.9504 107.387 37.6771 106.45 37.6717C106.262 37.6729 105.979 37.7945 105.866 38.1035L105.87 38.1113Z" fill="white"/>
<path fill-rule="evenodd" clip-rule="evenodd" d="M106.036 44.1582C105.937 44.5297 106.08 44.8708 106.373 44.9725C107.434 45.3393 107.718 43.5862 106.579 43.6687C106.368 43.6823 106.133 43.8183 106.036 44.1582Z" fill="white"/>
<path fill-rule="evenodd" clip-rule="evenodd" d="M103.959 85.1028C104.374 84.5422 105.341 83.786 106.28 83.7208C107.199 83.6561 107.85 84.0539 107.868 84.8299C107.881 85.8767 106.906 86.4685 105.781 86.3153C105.147 86.2269 103.867 85.729 103.965 85.1889C103.972 85.1652 103.955 85.1147 103.974 85.0945L103.959 85.1028ZM104.842 85.1568C104.825 85.2357 104.888 85.2418 104.878 85.297C105.258 85.4512 105.839 85.7371 106.401 85.6549C107.112 85.5529 107.492 84.5736 106.695 84.4035C105.922 84.2406 105.275 84.9252 104.83 85.1532L104.842 85.1568Z" fill="white"/>
<path fill-rule="evenodd" clip-rule="evenodd" d="M106.024 75.6523C106.552 75.0611 107.683 74.1474 108.853 74.3464C109.586 74.4713 110.119 75.2998 109.7 76.1702C109.467 76.6434 108.658 77.007 108.014 76.9739C107.205 76.9296 105.871 76.3507 105.916 75.8396C105.918 75.7886 105.957 75.7679 105.968 75.7519C105.986 75.6926 105.986 75.6926 106.016 75.6564L106.024 75.6523ZM106.817 75.8343C107.43 76.3115 109.268 76.6803 109.142 75.2954C108.391 74.6534 107.295 75.3897 106.817 75.8343Z" fill="white"/>
<path fill-rule="evenodd" clip-rule="evenodd" d="M110.8 38.873C110.531 39.9119 112.103 39.8959 112.098 39.0332C112.105 38.3035 110.994 38.1028 110.8 38.873Z" fill="white"/>
<path fill-rule="evenodd" clip-rule="evenodd" d="M111.866 35.3682C111.669 36.3188 113.089 36.354 113.169 35.5753C113.243 34.8398 112.056 34.4609 111.866 35.3682Z" fill="white"/>
<path fill-rule="evenodd" clip-rule="evenodd" d="M111.384 80.003C111.618 79.9573 111.953 80.2853 112.113 80.4182C112.74 80.9382 113.453 81.9185 113.348 82.7803C113.284 83.292 112.816 83.7717 112.452 83.817C111.026 83.9741 110.476 82.8167 110.699 81.4339C110.786 80.9098 110.909 80.0985 111.381 80.0149L111.384 80.003ZM111.835 83.0732C112.02 83.0838 112.212 83.0902 112.397 83.1008C113.118 82.4063 112.029 81.1696 111.573 80.8567C111.215 81.5059 111.224 82.7842 111.835 83.0732Z" fill="white"/>
<path fill-rule="evenodd" clip-rule="evenodd" d="M111.071 90.8124C111.063 91.095 111.294 91.3593 111.453 91.5823C111.935 92.2789 112.609 92.9427 113.325 93.4641C113.57 93.3828 113.633 93.1104 113.817 92.972C112.838 92.3127 111.87 91.6375 111.071 90.8124Z" fill="white"/>
<path fill-rule="evenodd" clip-rule="evenodd" d="M114.981 68.1014C115.363 69.0007 114.764 71.1312 114.13 71.1527C113.738 71.1635 113.264 70.4629 113.009 70.062C112.607 69.4221 112.45 68.8695 112.536 68.3063C112.758 66.8647 114.532 67.0588 114.981 68.1014ZM114.077 70.256C114.292 69.803 114.637 68.8521 114.32 68.2962C114.048 67.8252 113.279 67.7994 113.186 68.4256C113.089 69.1342 113.725 70.0069 114.077 70.256Z" fill="white"/>
<path fill-rule="evenodd" clip-rule="evenodd" d="M112.997 90.5866C111.764 90.5109 111.183 88.9621 111.896 88.2325C112.277 87.8494 113.191 87.8672 113.731 88.0954C114.885 88.5812 115.272 89.7863 116.337 90.2902C116.104 90.3751 116.07 90.682 115.801 90.7365C115.557 90.5589 115.396 90.2967 115.08 90.1878C114.67 90.407 114.172 90.5345 113.645 90.6275C114.07 90.9569 114.468 91.3107 115 91.543C114.881 91.766 114.706 91.9395 114.502 92.0785C113.944 91.6311 113.413 91.1595 112.982 90.5949L112.997 90.5866ZM114.552 89.6847C114.183 89.1066 113.304 88.3935 112.4 88.7284C111.835 89.9559 113.792 90.1214 114.552 89.6847Z" fill="white"/>
<path fill-rule="evenodd" clip-rule="evenodd" d="M114.887 61.8176C114.503 61.3968 114.208 60.9579 114.112 60.4625C113.861 59.234 114.939 58.5374 115.917 59.0084C116.827 59.446 116.927 60.8944 116.565 61.9438C116.467 62.225 116.415 62.6303 116.107 62.6663C115.64 62.6675 115.239 62.1962 114.883 61.8099L114.887 61.8176ZM115.914 61.8245C116.19 61.0403 116.213 59.765 115.467 59.5974C114.982 59.4893 114.695 59.7325 114.771 60.3579C114.848 61.0029 115.456 61.4136 115.914 61.8245Z" fill="white"/>
<path fill-rule="evenodd" clip-rule="evenodd" d="M118.7 57.6563C119.452 57.761 120.513 58.2768 120.525 58.6883C120.531 59.0528 119.729 59.6516 119.292 59.895C118.242 60.4575 116.499 60.3959 116.621 59.0081C116.709 57.9663 117.539 57.4923 118.704 57.664L118.7 57.6563ZM119.629 58.7797C119.205 58.4698 118.203 58.1014 117.632 58.4467C117.166 58.7263 117.129 59.5117 117.813 59.583C118.505 59.6501 119.245 59.0649 119.634 58.7874L119.629 58.7797Z" fill="white"/>
<path fill-rule="evenodd" clip-rule="evenodd" d="M115.282 87.0955C115.228 87.1048 115.23 87.1832 115.281 87.1857C115.703 88.1036 116.388 88.771 117.135 89.3857C117.367 89.3008 117.495 89.0933 117.626 88.8936C116.73 88.3889 116.006 87.7422 115.278 87.0878L115.282 87.0955Z" fill="white"/>
<path fill-rule="evenodd" clip-rule="evenodd" d="M119.316 23.3336C119.112 24.308 120.572 24.3421 120.615 23.4938C120.649 22.779 119.491 22.4542 119.316 23.3336Z" fill="white"/>
<path fill-rule="evenodd" clip-rule="evenodd" d="M116.617 85.8036C117.054 86.7131 117.744 87.4078 118.468 88.0546C118.652 87.9161 118.852 87.789 118.96 87.5625C118.072 87.0733 117.417 86.3697 116.609 85.8077L116.617 85.8036Z" fill="white"/>
<path fill-rule="evenodd" clip-rule="evenodd" d="M123.408 46.0861C124.043 46.9 123.567 48.1093 122.743 48.2028C121.383 48.3737 120.252 46.9107 119.943 46.0918C119.888 45.9521 120.052 45.9436 120.002 45.8117C120.998 45.2782 122.696 45.1645 123.408 46.0861ZM120.825 46.236C121.245 46.8166 121.835 47.6945 122.87 47.4188C123.466 46.1943 121.705 45.894 120.825 46.236Z" fill="white"/>
<path fill-rule="evenodd" clip-rule="evenodd" d="M118.092 84.4763C118.03 84.4898 118.04 84.564 118.083 84.5707C118.473 85.4658 119.173 86.0858 119.849 86.7181C120.058 86.6064 120.181 86.3912 120.39 86.2796C119.559 85.73 118.785 85.1395 118.092 84.4763Z" fill="white"/>
<path fill-rule="evenodd" clip-rule="evenodd" d="M122.279 66.5504C122.637 66.866 123.177 67.3923 123.112 67.7157C123.023 68.1614 121.495 68.6311 120.502 68.4272C119.634 68.2551 119.118 67.4772 119.33 66.6281C119.688 65.1631 121.624 65.9763 122.287 66.5462L122.279 66.5504ZM122.175 67.5808C122.164 67.3184 121.86 67.1032 121.556 66.8881C121.272 66.692 120.893 66.4672 120.544 66.465C119.948 66.4658 119.741 67.0442 120.122 67.4768C120.519 67.9404 121.612 67.7533 122.175 67.5808Z" fill="white"/>
<path fill-rule="evenodd" clip-rule="evenodd" d="M122.007 76.473C122.172 77.3391 121.63 77.9973 121.04 78.0646C119.219 78.264 118.777 75.3975 120.014 74.218C120.935 74.6005 121.822 75.478 122.007 76.473ZM120.201 75.1228C119.873 76.0143 119.867 77.6186 121.121 77.325C121.743 76.7038 120.774 75.4325 120.201 75.1228Z" fill="white"/>
<path fill-rule="evenodd" clip-rule="evenodd" d="M121.895 83.3551C122.598 84.3906 122.174 86.1594 120.739 85.8736C119.871 85.7015 119.409 84.726 119.679 83.6164C119.611 83.434 119.486 83.3119 119.423 83.1372C119.575 83.1251 119.646 83.4055 119.745 83.293C119.965 82.9065 120.131 81.992 120.601 81.979C120.844 81.9683 120.959 82.275 121.147 82.2933C121.046 82.1588 120.808 81.9183 120.893 81.763C121.583 82.4381 122.367 83.0126 123.191 83.5663C122.99 83.6738 122.951 83.9534 122.701 84.0074C122.397 83.7726 122.15 83.4971 121.853 83.2582C121.85 83.3093 121.886 83.32 121.903 83.351L121.895 83.3551ZM121.338 85.155C121.888 84.3632 121.115 83.2159 120.655 82.9148C120.2 83.5863 120.007 85.4899 121.338 85.155Z" fill="white"/>
<path fill-rule="evenodd" clip-rule="evenodd" d="M120.951 57.6258C121.004 57.4087 121.259 56.9937 121.596 56.8628C122.562 56.4949 123.555 57.3655 123.977 57.8755C124.297 58.251 124.624 58.7322 124.613 59.1757C123.314 60.0901 120.488 59.5643 120.943 57.63L120.951 57.6258ZM123.748 58.8035C123.389 58.1702 122.674 57.2605 121.704 57.6207C121.187 58.7528 122.809 59.1275 123.748 58.8035Z" fill="white"/>
<path fill-rule="evenodd" clip-rule="evenodd" d="M122.038 72.17C121.64 71.6868 121.388 71.0859 121.374 70.447C121.356 69.82 121.97 69.3519 122.507 69.3332C124.415 69.2765 124.427 72.0843 123.431 73.1747C122.88 73.0919 122.392 72.6073 122.034 72.1622L122.038 72.17ZM123.205 72.271C123.545 71.3831 123.535 69.7871 122.285 70.0688C121.745 70.9348 122.587 71.8763 123.205 72.271Z" fill="white"/>
<path fill-rule="evenodd" clip-rule="evenodd" d="M124.431 22.3254C124.367 22.688 124.526 23.0405 124.955 23.0993C125.903 23.2377 126.001 21.8427 125.168 21.7521C124.829 21.7144 124.531 21.8246 124.439 22.3213L124.431 22.3254Z" fill="white"/>
<path fill-rule="evenodd" clip-rule="evenodd" d="M127.071 22.9311C126.926 23.3469 127.119 23.7808 127.54 23.8437C128.43 23.9838 128.723 22.5442 127.702 22.494C127.415 22.4784 127.187 22.5906 127.071 22.9311Z" fill="white"/>
<path fill-rule="evenodd" clip-rule="evenodd" d="M127.575 60.9213C127.783 60.6606 128.292 59.9405 128.746 60.0456C129.042 60.1159 129.351 60.9349 129.436 61.2973C129.734 62.5597 129.178 64.2302 127.666 63.8759C127.066 63.7396 126.759 63.148 126.908 62.2928C127.019 61.6661 127.28 61.2981 127.587 60.9249L127.575 60.9213ZM127.704 63.1297C129.017 63.5405 128.96 61.6517 128.563 60.9292C128.005 61.2976 127.248 62.2795 127.704 63.1297Z" fill="white"/>
<path fill-rule="evenodd" clip-rule="evenodd" d="M127.785 74.3834C128.129 74.7465 128.785 75.3598 129.252 75.9156C129.341 76.0269 129.627 76.4504 129.69 76.4565C129.899 76.4742 129.984 76.0208 130.136 76.0088C129.525 75.3119 128.76 74.7565 127.777 74.3876L127.785 74.3834Z" fill="white"/>
<path fill-rule="evenodd" clip-rule="evenodd" d="M131.438 43.8752C132.417 43.4206 133.499 44.2535 133.97 44.7072C134.301 45.0275 134.739 45.4193 134.665 45.7273C134.631 45.8851 134.133 46.1617 133.744 46.2901C132.303 46.7536 130.471 46.1728 130.878 44.5927C130.97 44.2451 131.163 43.9926 131.426 43.8716L131.438 43.8752ZM133.746 45.5331C133.599 45.1646 132.92 44.5833 132.344 44.4737C131.836 44.378 131.422 44.5698 131.516 45.1359C131.648 45.901 133.104 45.8372 133.746 45.5331Z" fill="white"/>
<path fill-rule="evenodd" clip-rule="evenodd" d="M133.301 21.1469C133.149 21.5864 133.378 22.0704 133.903 22.0676C134.687 22.0655 134.89 20.7539 133.932 20.7098C133.645 20.6942 133.417 20.8064 133.301 21.1469Z" fill="white"/>
<path fill-rule="evenodd" clip-rule="evenodd" d="M133.63 69.0562C133.348 68.9385 133.092 69.0162 132.888 68.8768C131.717 68.0816 132.994 66.1049 133.571 65.5869C133.793 65.3886 134.143 65.1318 134.392 65.2073C134.582 65.2648 134.769 65.7812 134.862 66.0297C135.002 66.4023 135.061 66.6987 135.091 67.0705C135.562 67.3751 135.923 67.7692 136.348 68.1182C136.225 68.3334 136.081 68.51 135.9 68.6561C135.652 68.3414 135.341 67.8519 135.063 67.7223C134.978 68.3248 134.629 68.6207 134.297 68.9476C134.591 69.1983 134.923 69.4284 135.147 69.7359C135.002 69.8733 134.905 70.0642 134.796 70.232C134.212 69.8285 134.181 69.2685 133.634 69.0444L133.63 69.0562ZM133.335 68.3388C134.679 68.5644 134.48 66.8207 134.154 66.0806C133.587 66.4336 132.779 67.5228 133.335 68.3388Z" fill="white"/>
<path fill-rule="evenodd" clip-rule="evenodd" d="M133.74 53.9305C134.564 52.8526 136.332 53.4077 136.022 55.0753C135.933 55.5405 135.591 56.052 135.299 56.3974C135.117 56.6142 134.565 57.3472 134.179 57.2755C133.872 57.2213 133.562 56.3827 133.456 55.8326C133.387 55.4816 133.41 54.9122 133.466 54.6636C133.553 54.2494 133.581 54.1349 133.74 53.9305ZM134.317 56.3461C134.903 55.973 135.448 55.303 135.314 54.2909C135.219 54.1131 134.883 54.0243 134.623 54.1139C133.916 54.3531 134.063 55.7962 134.317 56.3461Z" fill="white"/>
<path fill-rule="evenodd" clip-rule="evenodd" d="M133.462 61.319C133.542 60.3912 134.111 59.3204 134.839 59.1394C135.384 59.0067 136 59.1348 136.317 59.5418C136.805 60.1558 136.319 61.1419 135.934 61.5369C135.451 62.0444 134.446 62.5821 133.636 62.4986C133.439 62.1864 133.427 61.7357 133.462 61.319ZM134.141 61.7708C134.92 61.4434 135.751 61.1772 135.818 60.0772C134.821 59.1792 134.094 60.6622 134.141 61.7708Z" fill="white"/>
<path fill-rule="evenodd" clip-rule="evenodd" d="M134.969 64.8194C135.35 65.2716 136.109 65.9095 136.66 66.5492C136.761 66.6641 137.034 67.1742 137.141 67.187C137.349 67.2047 137.445 66.7354 137.587 66.7393C136.959 65.8821 136.056 65.2717 134.961 64.8235L134.969 64.8194Z" fill="white"/>
<path fill-rule="evenodd" clip-rule="evenodd" d="M137.233 22.9399C137.029 23.9142 138.489 23.968 138.539 23.0959C138.55 22.8014 138.448 22.3493 137.779 22.3992C137.54 22.4176 137.324 22.5334 137.237 22.928L137.233 22.9399Z" fill="white"/>
<path fill-rule="evenodd" clip-rule="evenodd" d="M140.28 35.8884C140.462 35.6716 141.069 34.9685 141.444 35.0561C141.752 35.13 142.161 36.1541 142.194 36.8827C142.246 37.9088 141.812 38.6385 141.249 38.8502C140.077 39.2787 139.37 38.3845 139.597 37.2683C139.714 36.6885 139.969 36.254 140.276 35.9003L140.28 35.8884ZM140.355 38.1454C141.724 38.586 141.64 36.7019 141.261 35.9397C140.712 36.3432 139.992 37.2064 140.355 38.1454Z" fill="white"/>
<path fill-rule="evenodd" clip-rule="evenodd" d="M140.914 54.8143C141.784 55.6609 142.732 56.4465 143.4 57.4713C143.6 57.3442 143.63 57.0296 143.803 56.8875C143.056 55.9944 142.134 55.2747 140.906 54.8184L140.914 54.8143Z" fill="white"/>
<path fill-rule="evenodd" clip-rule="evenodd" d="M144.514 37.2816C144.355 36.3525 144.955 34.9672 145.499 34.5168C146.664 33.555 148.187 35.0268 147.274 36.4404C147.282 36.5853 147.371 36.6574 147.393 36.7744C147.225 36.7947 147.29 36.6008 147.122 36.6211C146.551 37.2252 145.802 37.6264 144.77 37.7216C144.606 37.6202 144.543 37.4651 144.507 37.2857L144.514 37.2816ZM145.238 36.9439C145.778 36.7642 146.717 36.4205 146.844 35.766C146.926 35.3636 146.754 34.9488 146.419 34.8992C145.738 34.7965 145.245 36.0847 145.238 36.9439Z" fill="white"/>
<path fill-rule="evenodd" clip-rule="evenodd" d="M144.64 45.9063C145.525 46.725 146.373 47.5841 147.178 48.4756C147.113 48.2421 147.336 47.9731 147.304 47.7818C147.255 47.4498 146.492 46.9532 146.188 46.7381C145.6 46.3269 145.146 46.0727 144.64 45.9063Z" fill="white"/>
<path fill-rule="evenodd" clip-rule="evenodd" d="M146.15 40.2243C146.783 40.8304 147.544 41.5466 148.115 42.0564C148.15 41.7691 148.052 41.6032 148.11 41.3035C147.51 40.8887 146.941 40.4573 146.146 40.2165L146.15 40.2243Z" fill="white"/>
<path fill-rule="evenodd" clip-rule="evenodd" d="M146.483 38.2269C146.963 38.7157 147.481 39.1641 148.004 39.6203C148.016 39.365 147.952 39.1903 147.942 38.967C147.469 38.7134 147.041 38.4154 146.479 38.2388L146.483 38.2269Z" fill="white"/>
<path fill-rule="evenodd" clip-rule="evenodd" d="M23.2064 113.391C21.6238 110.936 20.5141 107.453 21.1836 103.395C21.2617 102.965 21.5706 102.243 21.5483 101.867C21.5314 101.687 21.293 101.298 21.1725 101.054C21.0194 100.768 20.8853 100.462 20.7926 100.233C20.0512 98.5512 19.1989 96.8295 19.4989 94.4013C19.7187 92.6029 20.3893 91.2195 21.2276 89.9451C22.7685 87.5885 24.9078 85.737 27.145 84.1612C29.4667 82.5203 31.6222 80.8291 33.9958 79.3594C35.2134 78.6079 36.4333 77.9349 37.5781 77.1031C38.7117 76.2874 39.7723 75.3913 40.891 74.6034C42.0518 73.7829 43.2918 73.129 44.4733 72.3472C45.6281 71.5896 46.7415 70.7548 47.8791 69.9468C48.4438 69.535 49.0096 69.1625 49.5382 68.7204C50.0822 68.27 50.5627 67.7939 51.0623 67.2976C52.0156 66.3496 53.1847 65.5446 54.2821 64.6985C55.4027 63.8399 56.486 62.9118 57.5974 62.1477C58.7743 61.3385 59.9911 60.697 61.0399 59.7973C62.081 58.9017 63.057 57.9216 64.1367 57.0054C65.1855 56.1057 66.3397 55.3286 67.4495 54.5056C68.2984 53.8821 69.0981 53.1854 69.8437 52.5176C70.1 52.2909 70.4821 52.0764 70.5372 51.8081C69.2118 49.574 67.6414 47.2721 66.2923 45.0307C66.1113 44.7298 65.8792 44.1479 66.301 43.9519C66.6997 43.7683 67.0674 44.1582 67.3102 44.426C69.0748 46.3852 70.8079 48.3414 72.5913 50.1315C73.7146 49.0925 74.9739 48.2889 76.0688 47.2154C77.1446 46.162 78.0908 44.9592 79.1418 43.8594C80.1738 42.7798 81.325 41.7556 82.389 40.6986C83.472 39.6215 84.584 38.5985 85.6871 37.5404C86.7748 36.4906 87.8383 35.414 88.9342 34.3796C89.492 33.8622 90.057 33.321 90.559 32.7737C91.0801 32.2063 91.481 31.5441 91.9654 30.9267C92.8884 29.7364 93.9187 28.5979 94.9531 27.4672C95.9953 26.3324 96.9528 25.1136 98.0287 24.0602C98.5818 23.5154 99.1211 23.0377 99.651 22.5053C101.283 20.8757 102.662 19.0334 104.133 17.2514C106.085 14.8834 108.236 12.757 110.771 11.0317C112.052 10.157 113.362 9.35594 114.819 8.75478C116.35 8.12412 118.026 7.91303 120.117 7.80812C121.111 7.75316 122.061 7.65236 123.074 7.72629C125.573 7.91992 127.288 9.10005 128.905 10.1339C129.229 10.3485 129.544 10.677 129.896 10.7967C130.11 10.8614 130.389 10.8811 130.59 10.9226C134.05 11.7054 136.591 13.5373 138.4 15.8208C140.287 18.212 141.767 21.1989 141.596 25.6864C142.975 26.6288 144.248 27.4485 145.341 28.5047C146.425 29.5454 147.297 30.8587 148.15 32.2117C148.959 33.4993 149.736 34.7838 150.275 36.4946C150.503 37.2373 150.694 38.1694 150.8 39.147C150.86 39.7219 150.986 40.0321 151.111 40.4327C151.249 40.8955 151.331 41.4188 151.272 41.848C151.227 42.1708 151.007 42.4475 150.942 42.7709C150.877 43.1139 150.884 43.4981 150.836 43.8916C150.581 46.1068 150.123 48.2216 149.671 50.254C149.591 50.6248 149.43 51.0097 149.429 51.2686C149.426 51.4295 149.517 51.5996 149.542 51.795C149.62 52.3301 149.494 52.7454 149.203 53.0005C148.985 53.187 148.753 53.1424 148.67 53.3957C148.452 54.0293 148.159 54.6139 147.877 55.1826C147.607 55.7352 147.272 56.2426 147.001 56.7756C145.875 58.9795 144.549 61.0321 143.404 63.1072C142.799 64.1868 142.237 65.2338 141.556 66.2449C140.273 68.1551 138.556 69.8303 137.202 71.7385C136.558 72.6506 135.849 73.6664 135.087 74.5817C134.556 75.2239 133.941 75.9312 133.394 76.5621C133.193 76.799 132.91 77.0304 132.798 77.2296C132.626 77.5403 132.63 77.9559 132.415 78.2403C132.143 78.6048 131.75 78.596 131.397 78.845C131.177 78.9923 131.017 79.2869 130.804 79.5203C130.153 80.1972 129.457 80.8283 128.833 81.481C127.008 83.363 125.606 85.2373 123.821 86.9888C122.928 87.8646 121.946 88.6095 121.068 89.477C120.195 90.3523 119.355 91.2893 118.498 92.1563C117.61 93.0594 116.712 93.8882 115.927 94.8355C115.513 95.3255 115.139 95.8143 114.729 96.2728C113.49 97.6719 111.993 98.7919 110.693 100.095C111.921 101.665 113.217 103.547 114.547 105.4C115.47 106.697 116.409 108.024 117.091 109.707C117.289 110.188 117.735 111.113 117.284 111.404C116.857 111.682 116.105 111.021 115.769 110.763C114.418 109.706 113.348 108.469 112.34 107.218C111.349 105.979 110.313 104.694 109.26 103.358C109.142 103.212 108.33 102.086 108.2 102.085C108.181 102.086 107.457 102.702 107.177 102.922C106.092 103.771 105.02 104.683 104.049 105.432C101.076 107.75 98.561 109.902 95.428 111.828C94.6418 112.309 93.8788 112.777 93.1488 113.307C91.6931 114.375 90.3375 115.518 88.7789 116.413C87.9957 116.862 87.1676 117.245 86.3256 117.696C84.7457 118.532 83.2525 119.66 81.775 120.65C80.2666 121.656 78.6883 122.551 77.0869 123.458C76.2687 123.916 75.4897 124.373 74.6337 124.742C73.7699 125.115 72.9139 125.484 72.0507 125.876C70.3707 126.637 68.6888 127.468 66.9685 128.19C65.2327 128.92 63.543 129.755 61.7055 130.351C58.0149 131.552 53.8658 132.341 49.1911 132.427C44.1989 132.514 40.6387 130.413 38.1234 128.109C37.4593 127.5 36.803 126.887 36.1585 126.277C35.5099 125.66 34.8494 125.039 34.2394 124.401C32.9952 123.098 32.2508 121.448 31.5786 119.58C27.6223 118.446 25.0392 116.239 23.2064 113.391ZM48.7639 129.513C48.4144 129.491 48.058 129.643 47.6397 129.548C47.3674 129.485 46.9208 129.078 46.5991 128.793C44.5233 126.92 42.5449 124.469 41.8619 121.523C42.3384 122.431 42.8339 123.32 43.3639 124.18C43.7794 123.898 44.138 123.546 44.6671 123.402C44.4801 122.886 44.293 122.369 44.1327 121.829C44.3956 122.116 44.6933 122.802 44.9499 123.281C45.5659 123.021 46.6233 123.121 46.947 123.614C46.8286 123.17 46.5469 122.495 46.3706 121.943C46.634 122.25 46.8167 122.609 47.0225 122.957C48.4608 125.439 50.4665 127.607 52.8888 129.254C53.1732 129.191 53.3765 129.033 53.6491 128.966C51.3945 127.15 49.5033 125.01 48.6176 121.963C49.3788 123.237 50.2081 124.563 51.2361 125.703C52.2682 126.851 53.4073 127.902 54.6869 128.788C55.642 128.735 56.5154 129.122 56.5913 130.006C57.9723 129.764 59.2841 129.43 60.5721 129.088C60.0615 128.914 59.5544 128.728 59.1508 128.457C58.9858 128.446 59.1074 128.172 58.9347 128.165C58.719 128.3 58.3458 128.271 58.13 128.407C55.7701 126.746 53.9186 124.625 52.9923 121.67C54.4419 124.136 56.4562 126.469 58.9883 128.116C59.1342 127.869 59.3044 127.649 59.535 127.486C57.5994 125.857 55.9468 123.977 55.1083 121.352C55.4901 121.824 55.7881 122.381 56.1597 122.908C57.2142 124.432 58.5865 125.825 60.1237 126.952C60.4688 126.816 60.7292 126.597 61.1312 126.531C59.4463 125.037 58.0023 123.324 57.2385 120.988C57.6405 121.478 57.9859 122.049 58.3736 122.588C59.5323 124.195 61.0208 125.676 62.7997 126.752C62.9257 126.913 62.606 126.836 62.7409 127.032C62.9826 127.261 62.9189 127.921 62.7752 128.247C63.3548 128.086 63.8249 127.794 64.3559 127.58C64.334 126.388 64.9677 125.919 65.5042 125.344C64.297 124.518 63.365 123.446 62.5246 122.285C61.372 122.564 60.684 121.798 60.917 120.749C61.1363 119.766 62.3228 119.439 63.5576 119.573C63.4942 119.548 63.5604 119.393 63.4737 119.38C63.5612 119.283 63.6288 119.595 63.7433 119.623C64.1094 119.676 64.4832 119.724 64.6162 119.991C64.6079 120.254 64.5061 120.398 64.4043 120.542C65.4897 122.05 66.854 123.298 68.4781 124.308C68.2836 124.502 67.9559 124.558 67.7087 124.69C66.2656 123.703 65.071 122.493 64.2432 120.947C63.8295 121.288 63.5577 121.801 63.0148 122.012C63.8701 123.146 64.9662 124.06 66.1462 124.891C67.0814 124.41 67.1187 125.593 67.2015 126.305C69.3927 125.46 71.3044 124.297 73.524 123.486C73.2338 123.204 73.2122 122.44 73.415 121.983C73.0853 121.553 72.5931 121.339 72.2027 120.981C71.0926 119.985 70.1521 118.748 69.5332 117.239C70.277 118.034 71.1038 119.133 72.0167 119.947C71.8261 119.443 72.0867 118.537 72.6117 118.386C72.1791 117.782 71.8 117.129 71.4935 116.408C72.0381 116.813 72.4594 117.711 73.1417 118.132C73.5665 117.904 74.2104 117.937 74.8821 117.985C75.0259 117.938 74.8333 117.783 74.8049 117.748C74.3527 117.145 73.7388 116.37 73.4615 115.573C74.7312 116.942 76.1379 118.586 78.1386 119.464C77.9447 119.677 77.6738 119.802 77.4112 119.943C76.7471 119.612 76.205 119.157 75.6938 118.685C75.4651 119.056 75.2364 119.427 75.0279 119.817C75.4619 120.052 75.8269 120.344 76.2989 120.539C76.2462 120.756 75.9792 120.74 75.8619 120.892C75.9596 121.297 76.0418 121.711 75.979 122.261C79.1161 120.621 81.9211 118.602 84.8397 116.722C84.2753 116.447 82.7571 115.857 83.8368 115.22C82.6491 114.394 81.6714 113.366 80.9998 112.074C81.1839 112.065 81.2915 112.266 81.4004 112.377C82.2783 113.2 83.3115 114.109 84.4622 114.736C84.8021 114.554 85.1378 114.364 85.6073 114.331C84.3449 113.496 83.3078 112.45 82.6382 111.088C83.8593 112.125 85.1408 113.497 86.9853 114.121C86.8474 114.234 86.6929 114.317 86.5064 114.377C86.9048 114.601 87.2455 114.867 87.3495 115.358C88.701 114.764 89.8792 113.864 91.0301 112.969C92.1774 112.087 93.3496 111.25 94.5785 110.483C97.0478 108.932 99.3631 107.205 101.585 105.359C101.006 103.61 103.338 102.6 104.758 102.894C105.564 102.174 106.424 101.515 107.3 100.867C106.439 99.2593 104.767 98.3643 103.952 96.7121C104.08 96.6733 104.292 96.9381 104.409 97.0643C104.241 96.6767 103.768 96.1838 103.486 95.7485C103.706 96.3268 103.78 97.8582 103.259 98.406C104.059 99.1016 104.87 99.7812 105.925 100.23C105.779 100.458 105.515 100.56 105.336 100.764C104.72 100.468 104.04 99.8277 103.493 99.2153C103.412 99.1195 103.077 98.6424 103.01 98.6286C102.975 98.6178 102.556 98.9314 102.434 98.9269C101.549 98.9632 101.015 98.6328 100.938 98.0074C100.768 96.6865 102.132 95.4486 103.005 95.1107C102.328 94.1803 101.547 93.0567 100.82 91.9944C100.468 91.4864 100.008 91.1461 100.061 90.4112C100.129 89.3308 101.54 88.625 102.454 89.4587C103.029 89.9762 103.529 90.7428 104.089 91.4176C105.607 93.2503 107.483 95.6967 108.792 97.4725C108.91 97.3594 108.919 97.116 109.053 97.0142C108.161 96.2584 107.308 95.4623 106.803 94.3703C107.307 94.7368 107.735 95.1642 108.189 95.5673C108.041 94.7714 108.741 93.7205 108.217 93.2251C108.325 93.1672 108.443 93.462 108.624 93.4845C108.861 92.9799 109.207 92.5859 109.799 92.4676C109.897 92.3354 109.658 92.2048 109.638 92.0367C110 92.4895 110.817 92.4198 111.186 92.8684C111.329 93.041 111.342 93.2328 111.439 93.489C111.835 93.7643 112.243 94.0433 112.715 94.2577C112.605 94.4961 112.421 94.6541 112.217 94.7931C111.863 94.6146 111.582 94.3871 111.308 94.1358C111.086 94.4635 110.86 94.7836 110.513 94.9893C111.06 95.4722 112.225 95.6439 112.068 96.6131C112.123 96.7528 112.343 96.4957 112.462 96.4022C113.399 95.5722 114.238 94.4469 115.092 93.4428C116.048 92.3143 117.171 91.2752 118.212 90.2306C119.272 89.1659 120.307 88.0744 121.42 87.071C122.532 86.0675 123.657 85.0677 124.621 83.9546C124.002 83.6893 123.597 83.0809 123.719 82.2696C123.821 81.5882 124.25 81.09 124.686 80.678C124.823 80.5447 125.12 80.3757 125.123 80.3246C125.141 80.1555 124.634 79.8205 124.545 79.7288C124.327 79.5073 124.208 79.3028 124.011 79.1396C124.778 79.3654 125.277 79.834 125.88 80.2174C126.064 80.7457 126.316 81.2172 126.309 81.9273C127.361 80.7373 128.645 79.5526 129.621 78.4431C129.344 78.2037 128.848 78.1507 128.807 77.795C128.738 77.1458 130.515 76.2338 131.133 76.1814C131.38 76.1589 131.566 76.2283 131.695 76.209C132.514 75.1039 133.504 74.2058 134.291 73.0584C133.692 73.0711 133.348 72.8374 132.902 72.7086C132.475 73.9715 131.557 75.3579 130.254 75.1508C129.616 75.0547 129.238 74.4611 129.338 73.7014C129.359 73.591 129.464 73.4352 129.45 73.3336C129.422 73.0402 129.229 73.0338 129.054 72.7994C129.236 72.861 129.411 72.9268 129.558 73.0168C130.054 72.6619 130.525 72.2802 131.333 72.2657C131.001 71.9062 130.628 71.5988 130.312 71.2311C131.098 71.4564 131.59 71.9487 132.224 72.3155C132.309 72.27 132.121 72.1223 132.148 71.9882C132.317 71.5796 132.745 71.4697 132.942 71.0955C132.495 70.6686 132.113 70.1772 131.596 69.8071C131.393 70.503 130.816 70.8916 130.169 71.1879C129.759 71.368 129.257 71.6368 128.796 71.4456C128.603 71.1019 128.671 70.598 128.719 70.224C128.848 69.2596 129.458 68.2269 130.14 68.0512C131.116 67.7967 131.847 68.6981 131.649 69.7194C132.416 69.9649 132.935 70.4329 133.516 70.8483C134.024 70.3871 135.434 70.3481 135.901 70.9235C136.958 69.3137 138.297 68.0098 139.454 66.5149C139.198 66.1847 138.961 65.8343 138.857 65.3626C138.607 65.3774 138.62 65.6987 138.414 65.7593C137.763 64.785 136.879 64.0251 136.06 63.2006C137.041 63.5303 137.836 64.179 138.552 64.8298C138.592 64.8679 138.678 65.1401 138.784 64.9842C138.643 64.443 138.903 63.9259 139.13 63.6451C138.544 62.8847 137.794 62.2623 137.127 61.5748C138.259 61.9631 139.052 62.6628 139.794 63.3993C140.449 63.4164 140.871 63.6479 141.071 64.0777C141.431 63.6363 141.662 63.0456 141.949 62.5239C141.369 62.536 140.98 62.3859 140.806 62.0417C140.647 62.0971 140.658 62.3399 140.547 62.4489C139.839 61.5155 138.954 60.7359 138.142 59.8877C138.99 60.1898 139.719 60.754 140.366 61.3126C140.39 61.3394 140.534 61.5707 140.593 61.4201C140.521 60.971 140.761 60.4545 140.981 60.1778C140.477 59.423 139.729 58.8986 139.115 58.2528C140.037 58.5449 140.722 59.0633 141.342 59.6266C141.705 59.4518 141.911 59.1127 142.315 58.9761C141.751 58.0151 140.831 57.3738 140.091 56.5667C141.263 56.9736 142.091 57.7037 142.85 58.4906C142.793 58.551 142.781 58.6769 142.704 58.7182C143.242 58.8877 143.21 59.571 143.339 60.1087C144.06 59.1161 144.647 57.9664 145.279 56.8821C145.09 56.7343 144.906 56.7434 144.73 56.6188C144.43 56.4114 144.283 56.0429 144.22 55.6093C143.489 54.7274 142.682 53.9065 141.813 53.1383C142.761 53.367 143.554 54.1256 144.315 54.6732C144.397 54.2513 144.564 53.9329 144.744 53.6181C144.22 52.6952 143.298 52.1246 142.606 51.3515C143.635 51.7152 144.401 52.3098 145.098 52.9808C145.287 53.0187 145.306 52.8299 145.522 52.8631C146.002 52.9244 146.374 53.8789 146.577 54.2772C146.84 53.8386 147.045 53.3505 147.259 52.8582C146.883 52.6019 146.576 52.2888 146.319 51.9194C146.173 52.0372 146.105 52.243 146.056 52.4679C145.261 51.3918 144.309 50.4494 143.296 49.5597C144.342 49.9347 145.181 50.4998 145.833 51.2348C145.901 51.1583 145.823 51.0115 145.901 50.8603C146.101 50.7332 146.33 50.6406 146.615 50.617C145.986 49.4421 144.925 48.6674 143.994 47.7637C145.237 48.1921 146.129 48.9283 146.886 49.7859C146.835 50.0618 146.735 50.2842 146.7 50.5715C147.038 50.4406 147.524 50.4585 148.016 50.5037C148.55 48.1789 149.076 45.8582 149.368 43.2655C148.464 42.8944 148.471 41.9059 148.87 41.0359C149.006 40.734 149.277 40.4795 149.33 40.2623C149.404 39.9739 149.317 39.3841 149.254 38.9505C148.876 36.1097 147.474 33.9561 146.181 32.0426C144.999 30.2987 143.684 28.9741 141.809 27.7004C141.573 27.5382 141.226 27.3361 140.903 27.141C140.544 26.9157 140.16 26.6439 139.948 26.6184C139.437 26.5737 138.672 27.1322 137.905 27.1652C137.169 27.2012 136.47 27.0088 135.859 26.7786C135.253 26.5561 134.789 26.2082 134.191 26.409C133.503 26.6477 133.006 27.6498 132.324 28.0452C131.837 28.3253 131.19 28.4531 130.662 28.6167C130.098 28.7892 129.61 29.0105 129.124 29.2907C128.214 29.8179 127.134 30.1772 126.462 31.0744C126.019 31.6592 125.775 32.4464 125.279 33.0798C124.814 33.6771 124.364 34.2661 123.923 34.8901C123.497 35.4863 123.04 36.099 122.563 36.6926C122.093 37.2822 121.536 37.8388 121.165 38.4452C120.723 39.1595 120.392 39.804 119.942 40.393C119.311 41.2184 118.262 41.8592 117.578 42.7528C116.985 43.5379 116.468 44.968 115.705 45.5657C114.945 46.1515 113.608 46.2904 113.147 47.0249C112.824 47.5358 112.812 48.199 112.688 48.6926C112.536 49.2812 112.325 49.7028 111.963 50.0658C111.249 50.7758 110.267 51.0932 109.576 51.7712C108.893 52.4451 108.107 53.0551 107.457 53.7713C106.806 54.4874 106.361 55.3821 105.7 56.1142C105.08 56.7942 104.062 57.1204 103.329 57.682C103.229 57.7553 103.064 57.8932 102.989 57.9934C102.395 58.7589 102.538 60.0649 102.146 60.7621C102.019 60.9892 101.776 61.2783 101.502 61.4349C100.796 61.8427 99.7991 61.7997 99.1716 62.2053C98.4976 62.6358 98.0155 63.8885 97.3664 64.6438C97.0588 64.9974 96.661 65.3496 96.3303 65.7157C95.6539 66.4757 95.0393 67.2025 94.1717 67.7168C93.2577 68.2559 92.4136 68.6283 91.9135 69.6618C91.6876 70.1309 91.5334 70.6411 91.2321 71.0808C90.55 72.0528 89.1041 72.3595 88.2699 73.0846C87.2942 73.9352 86.4978 75.0279 85.4154 75.8462C84.8703 76.2574 84.3116 76.6062 83.8098 77.0241C83.308 77.4419 82.8264 77.8789 82.3406 78.308C81.4225 79.1178 80.3105 79.8624 79.177 80.6782C78.6427 81.0538 78.0899 81.4691 77.5271 81.8102C76.9376 82.1756 76.3547 82.4976 75.9205 82.9489C75.5243 83.3599 75.2645 83.877 74.8648 84.2998C74.2675 84.9478 73.4805 85.2598 72.6416 85.6791C71.8918 86.0607 71.1974 86.6015 70.5991 87.2103C69.9169 87.9038 69.3555 88.4331 68.5986 88.8384C67.8261 89.252 66.9276 89.5043 66.2813 90.0791C65.5856 90.7102 65.1936 91.6858 64.4838 92.2349C63.9084 92.6823 63.158 93.0443 62.4532 93.4913C61.7793 93.9217 61.1302 94.3986 60.5103 94.8001C59.9326 95.169 59.1884 95.7465 58.4377 95.9595C57.6289 96.1937 56.4964 96.2132 55.9684 96.6749C55.356 97.2017 55.0085 98.2232 54.3621 98.798C53.4441 99.6078 51.6719 99.602 50.7193 100.44C50.1301 100.955 49.686 101.61 49.1872 101.996C48.5582 102.492 47.9676 102.54 46.9091 102.679C45.7568 102.829 44.7943 103.593 43.8381 104.164C43.5143 104.358 43.1501 104.513 42.917 104.727C42.1915 105.414 42.0663 106.535 41.2978 107.086C40.4484 107.69 39.3684 107.9 38.5918 108.584C37.9609 109.151 37.5869 109.789 36.9171 110.227C36.5783 110.448 36.2272 110.646 35.8114 110.779C34.9372 111.058 34.0379 111.142 33.8633 112.32C33.7875 112.828 33.729 113.257 33.5092 113.663C33.0664 114.507 32.1459 115.089 32.1266 116.074C32.1128 116.419 32.3697 117.048 32.5237 117.502C32.9596 118.781 33.443 120.352 34.0142 121.418C34.8921 123.077 36.2602 124.184 37.4691 125.347C38.7385 126.567 39.9436 127.871 41.467 128.786C42.2246 129.235 43.114 129.634 44.0297 129.989C45.3498 130.506 46.7361 130.867 48.5712 130.879C50.2063 130.889 51.8756 130.721 53.2718 130.6C53.4072 130.538 53.1584 130.333 53.0648 130.214C52.931 130.057 52.7663 129.916 52.7114 129.777C52.6548 129.578 52.8339 129.393 52.7781 129.363C52.505 129.41 52.1792 129.395 51.9263 129.461C49.9755 127.989 48.2964 126.283 47.2328 124.018C47.2334 124.594 47.0538 125.317 46.5448 125.48C47.7411 127.027 49.2472 128.3 50.887 129.45C50.5036 129.477 50.1472 129.628 49.7562 129.529C49.4288 129.456 48.9752 128.943 48.6737 128.676C47.7045 127.813 46.6188 126.713 45.9716 125.727C45.3975 125.806 44.7544 125.663 44.3947 125.418C44.5718 125.86 44.9807 126.178 45.3242 126.541C46.319 127.62 47.5473 128.633 48.7841 129.532L48.7639 129.513ZM22.2558 99.8472C22.7639 98.9585 23.2074 98.005 23.8411 97.258C23.2528 95.8623 22.8323 94.2973 22.9207 92.2907C23.2011 93.891 23.604 95.3859 24.1941 96.7109C24.6038 96.3622 24.8879 95.872 25.3337 95.5537C24.8586 94.2765 24.5131 92.8703 24.6267 91.0591C24.8717 92.5191 25.2048 93.9022 25.7365 95.0994C26.1709 94.7971 26.5889 94.464 26.9624 94.085C26.4983 92.9212 26.2257 91.5953 26.3276 89.9295C26.5788 91.3267 26.887 92.6634 27.3944 93.8338C27.8548 93.6171 28.2223 93.301 28.6951 93.1075C28.2164 91.8422 27.9368 90.4106 27.9856 88.6639C28.2599 90.0486 28.5764 91.4008 29.0457 92.6115C29.2932 92.6282 29.4772 92.3407 29.6763 92.1744C29.8987 91.9957 30.1814 91.8741 30.316 91.6429C29.8561 90.4869 29.6215 89.1207 29.6813 87.4875C29.9664 88.8366 30.2092 90.2183 30.7505 91.3407C31.1732 91.0348 31.6325 90.7789 31.9698 90.3696C31.5526 89.2006 31.2924 87.8978 31.3795 86.26C31.6177 87.6143 31.898 88.9361 32.4002 90.0596C32.8424 89.7532 33.3011 89.4777 33.6261 89.0452C33.2183 87.9308 32.9746 86.659 33.0752 85.0835C33.2886 86.3915 33.5976 87.6183 34.0173 88.7363C34.4791 88.4293 34.8882 88.0611 35.2446 87.6316C34.8539 86.5678 34.7081 85.2932 34.7343 83.8571C35.003 85.0458 35.2142 86.2754 35.6357 87.3227C36.0473 86.9034 36.4915 86.5264 36.8302 86.0268C36.5052 85.067 36.3906 83.925 36.4443 82.6332C36.6618 83.6704 36.8334 84.752 37.177 85.672C37.5952 85.2094 37.9731 84.7087 38.3267 84.1813C38.1931 83.3378 38.0518 82.4985 38.1401 81.4567C38.3219 82.2047 38.4039 83.026 38.6315 83.7296C39.0707 83.1762 39.4334 82.5544 39.8886 82.0123C39.7804 81.5133 39.7947 80.9089 39.8435 80.2761C39.9542 80.7241 40.0113 81.2206 40.0952 81.6928C40.5603 81.225 40.9928 80.715 41.5225 80.312C41.4723 79.9212 41.5142 79.4612 41.4907 79.0461C41.6397 79.3244 41.6168 79.7643 41.72 80.0869C41.7796 80.2539 41.941 79.9984 42.0105 79.9612C42.3421 79.7638 42.8108 79.5626 43.2549 79.464C43.1782 78.968 43.1704 78.4152 43.2008 77.8222C43.3476 78.3005 43.3909 78.8641 43.4919 79.3868C44.0166 79.3645 44.6903 79.3419 45.0768 79.5626C45.0458 78.7438 44.7749 77.7551 44.8965 76.6457C45.0047 77.1447 45.1068 77.7067 45.232 78.2562C45.3526 78.7784 45.428 79.3647 45.6735 79.7305C45.8658 80.0154 46.1985 80.1356 46.4366 80.3761C46.6855 80.3025 46.894 80.1909 47.1511 80.1328C47.1649 79.2303 46.8605 78.5877 46.7146 77.721C46.5973 77.0379 46.5192 76.3537 46.5922 75.4693C46.7009 76.2664 46.9278 77.0798 47.1322 77.7958C47.1976 78.0293 47.1745 78.3201 47.3825 78.4673C47.5281 77.5142 47.9242 76.8247 48.341 76.1739C48.2461 75.5882 48.2659 74.9013 48.2554 74.2506C48.467 74.6644 48.4074 75.3328 48.6 75.7667C48.6514 75.9182 48.8384 75.5993 48.9377 75.5063C49.2279 75.2316 49.6505 74.9258 50.0053 74.7159C49.9434 74.1921 49.9238 73.6357 49.9536 73.0231C50.0998 73.4818 50.1468 74.0335 50.2472 74.5367C50.7402 74.3622 51.1923 74.1301 51.7297 74.0015C51.6784 73.293 51.5771 72.6212 51.6518 71.7956C51.8088 72.4972 51.882 73.2835 52.1079 73.9283C52.6006 73.8833 53.0892 73.8305 53.6548 73.8659C53.4431 72.8951 53.2469 71.9161 53.3528 70.666C53.5338 71.5239 53.6726 72.4142 53.9687 73.3199C54.0636 73.6271 54.1293 74.0096 54.4035 74.002C54.5875 73.993 54.7974 73.5126 54.9083 73.2743C55.0305 73.0199 55.2539 72.6019 55.2834 72.3971C55.3209 72.0588 55.1176 71.382 55.0709 70.9793C55.0204 70.4395 55.0066 69.9496 55.0077 69.4319C55.163 69.7962 55.1983 70.2149 55.2764 70.6206C55.3545 71.0264 55.4677 71.4233 55.5452 71.8094C55.9606 71.2488 56.2991 70.6002 56.7512 70.0896C56.7335 69.4626 56.6665 68.8918 56.71 68.2121C56.8491 68.6946 56.9233 69.2416 57.0089 69.7726C57.4809 69.4105 57.9002 68.9871 58.4651 68.7244C58.3837 68.2011 58.3636 67.6251 58.4124 66.9923C58.5365 67.5027 58.6072 68.0615 58.7046 68.5962C59.1832 68.4692 59.6133 68.2886 60.2619 68.3491C60.1341 67.5722 60.0218 66.787 60.1158 65.8117C60.2855 66.6855 60.4207 67.5878 60.6898 68.3687C61.0172 68.442 61.2989 68.5597 61.6151 68.649C61.5941 68.1828 61.583 67.791 61.6343 67.3856C61.6765 67.0746 61.845 66.7954 61.8682 66.5045C61.9258 65.9067 61.6855 65.3094 61.7759 64.6245C61.9467 64.9806 61.9683 65.4663 62.0433 65.9035C62.3186 65.6566 62.4624 65.3311 62.6974 65.0461C62.9324 64.7611 63.216 64.5297 63.4836 64.287C63.4866 63.9771 63.4397 63.7038 63.4885 63.3495C63.5812 63.5783 63.6049 63.864 63.6328 64.1574C64.1385 63.8767 64.5997 63.5502 65.1741 63.3421C65.1672 62.9579 65.1412 62.5939 65.1842 62.1731C65.3147 62.491 65.2883 62.9428 65.4111 63.2649C65.7186 63.1898 66.0629 63.1645 66.4031 63.1316C66.4696 62.8474 66.7832 62.7093 66.861 62.409C66.9633 62.0062 66.7732 61.5212 66.8841 61.0043C66.9718 61.3353 67.0292 61.7024 67.0676 62.0896C67.2284 62.093 67.376 61.9045 67.5021 61.7873C67.8 61.5085 68.1396 61.1775 68.5697 60.9969C68.5206 60.6453 68.5743 60.1889 68.5365 59.8212C68.7087 60.0871 68.6817 60.5193 68.7658 60.8621C69.5487 60.5423 71.039 60.5599 71.6581 61.1036C72.3038 59.6738 72.8017 58.005 73.5713 56.6581C74.2957 55.3751 75.3238 54.1583 77.2099 54.1728C78.2394 52.5873 79.8479 50.5426 82.3101 50.6862C83.2014 50.7361 83.7877 51.0885 84.4291 51.4512C85.443 48.4817 87.2943 46.4263 90.6514 46.051C91.6028 44.3382 91.8976 41.8632 92.9764 39.9429C93.4577 39.0785 94.117 38.268 94.8287 37.6483C95.8122 36.7935 97.3813 35.9931 99.1902 36.6059C99.8936 34.5784 100.333 31.9659 100.856 29.6571C101.375 27.3209 102.223 25.4149 104.471 24.9174C105.112 22.6249 107.527 20.8245 110.387 21.7494C111.234 19.1178 112.94 17.4391 115.559 16.7627C118.043 13.3837 121.393 10.9535 126.601 10.582C125.365 9.72195 124.165 9.2806 121.981 9.26651C120.216 9.2565 118.394 9.41675 116.855 9.75348C115.37 10.0809 114.08 10.7519 112.878 11.5147C110.537 13.0071 108.433 14.74 106.563 16.8155C104.674 18.9111 103.092 21.21 101.18 23.1886C100.216 24.1919 99.1915 25.1183 98.2635 26.1324C96.8834 27.657 95.3877 29.1142 94.0929 30.7424C93.6537 31.2958 93.2579 31.8558 92.8383 32.4086C91.9837 33.5226 91.0108 34.4712 90.0152 35.4518C88.0621 37.3727 86.0486 39.2364 84.1044 41.1924C83.1207 42.1766 82.1405 43.1489 81.1439 44.0903C80.1317 45.04 79.2755 46.0952 78.3207 47.1335C77.4041 48.1315 76.3641 49.0662 75.275 49.9278C74.2049 50.7693 73.1674 51.653 72.1429 52.5795C71.1451 53.4817 70.1051 54.4165 69.0083 55.2822C67.9341 56.1159 66.7556 56.8663 65.651 57.7361C64.5501 58.5941 63.6185 59.62 62.6053 60.5305C61.573 61.4611 60.413 62.1717 59.2505 62.9334C58.1035 63.6868 56.9865 64.5334 55.8933 65.3873C54.7846 66.2495 53.6902 67.0641 52.6734 67.9865C51.6412 68.9171 50.6569 69.8817 49.5388 70.6892C48.413 71.5008 47.3063 72.2923 46.1841 73.0921C45.031 73.9084 43.7868 74.5546 42.6042 75.2972C41.437 76.0316 40.4047 76.9622 39.2914 77.797C37.0759 79.4506 34.5948 80.7194 32.3123 82.3592C31.1942 83.1667 30.0963 83.9932 28.9551 84.8131C27.856 85.6005 26.7291 86.3729 25.6933 87.3154C23.6251 89.1885 21.5328 91.3133 21.11 94.5332C20.8122 96.7613 21.6788 98.1571 22.2949 99.8461L22.2558 99.8472ZM95.0029 59.2458C94.5751 59.2263 94.3654 59.0203 94.3262 58.7429C94.1904 57.8211 95.5833 57.5825 95.6465 58.573C95.6515 58.7494 95.868 58.5041 95.937 58.4473C96.6493 57.8472 97.4189 57.0572 98.1088 56.3596C98.9088 55.5334 99.6597 54.6341 100.396 53.7627C101.886 51.9801 103.496 50.2726 105.103 48.7064C103.965 49.1066 103.789 47.2916 104.838 47.3763C105.242 47.4083 105.544 47.8235 105.401 48.2981C107.552 45.7638 109.783 43.2665 111.965 40.7157C113.062 39.4421 114.003 38.0433 115.024 36.7012C116.033 35.3751 117.211 34.1973 118.349 32.9814C117.368 32.5222 118.309 31.0136 119.201 31.8989C120.341 30.3534 121.615 28.9455 123.018 27.6869C122.669 27.5554 122.397 27.3433 122.403 27.0019C122.404 26.2057 123.732 26.0317 123.763 26.98C125.638 25.4887 127.975 23.8395 130.882 23.3669C134.086 22.8351 137.631 23.5528 139.992 24.864C140.111 23.2488 139.737 21.7884 139.274 20.5148C137.926 16.8105 135.196 13.9759 131.193 12.6983C125.614 10.9113 120.399 13.3656 117.742 16.4591C117.328 16.949 116.997 17.4445 116.637 17.9957C116.475 18.2316 116.252 18.3907 116.09 18.6266C115.506 19.486 115.074 20.851 114.837 22.1714C114.579 23.5827 114.603 25.1116 114.425 26.599C114.233 28.2633 113.088 29.354 111.381 29.3031C111.402 32.2754 109.567 34.7696 106.696 34.7353C105.959 38.2227 104.556 41.709 102.256 43.8356C101.106 44.8989 99.1651 45.5801 97.4863 44.5794C96.3806 47.7672 94.6352 50.2432 90.6883 50.2779C90.2114 51.2991 90.2344 52.5299 90.0468 53.6647C89.6897 55.8748 88.794 57.6174 87.3932 58.8249C86.6738 59.4488 85.7339 59.9023 84.6663 59.8573C83.3749 59.8029 82.6085 59.0397 81.9764 58.4532C81.7039 59.9119 80.9272 61.0041 80.1139 61.9168C79.3162 62.8214 78.3978 63.7606 77.0091 64.0069C75.9885 66.4629 75.1746 69.1563 73.1219 70.4642C73.6651 70.959 73.2419 71.8022 72.5412 71.7C72.2066 71.6504 71.9768 71.4254 71.9718 70.9706C71.2311 71.2577 69.8931 71.0791 69.2207 70.7329C68.9462 70.5915 68.664 70.1757 68.3857 70.454C68.2105 70.4981 68.2723 70.7435 68.2745 70.8218C68.2711 73.6183 66.3301 75.6919 64.2719 76.8038C63.206 77.3745 61.6109 77.8109 60.1289 77.2518C59.1574 79.5025 56.8581 81.5193 53.5942 80.4722C53.6375 85.0636 52.0334 87.822 48.4143 88.3575C47.7801 89.9203 46.2364 91.6221 44.1254 91.5589C42.8228 91.5204 41.8569 90.7745 41.3087 89.8249C40.0425 91.0796 38.6872 92.0937 37.0814 92.8441C35.4833 93.5904 33.6694 94.1935 31.3915 94.1899C30.9838 94.1894 30.549 94.0642 30.1275 94.1308C29.7802 94.1874 28.8704 94.7342 28.5429 94.9394C27.1173 95.8221 25.7702 97.1301 24.847 98.4499C23.4677 100.422 22.5282 102.973 22.5331 106.064C22.549 108.989 23.6499 111.602 25.0627 113.461C26.5448 115.413 28.5188 116.872 30.986 117.749C30.6093 116.488 30.1339 115.341 30.2072 113.77C30.3147 111.465 31.6178 109.574 32.5217 107.846C33.0199 106.884 33.4709 106.055 34.0613 105.302C35.2229 103.814 36.7578 102.635 38.2819 101.49C39.0535 100.908 39.838 100.369 40.6107 99.8257C42.2143 98.7184 43.9302 97.8395 45.6326 96.8982C47.3308 95.9491 48.9644 94.9352 50.61 93.9248C52.2436 92.9109 53.7589 91.7316 55.3647 90.7028C56.1849 90.1741 57.0547 89.7382 57.8718 89.2411C60.2768 87.7744 62.6343 86.0148 64.9606 84.4013C64.9912 83.9573 65.2511 83.4402 65.9891 83.612C67.2428 82.6125 68.6026 81.7551 69.922 80.8597C71.2456 79.972 72.4928 79.0158 73.7673 78.055C75.034 77.0983 76.3132 76.1647 77.5195 75.1509C78.749 74.1246 79.9973 73.2076 81.3204 72.3003C83.9314 70.4945 86.0392 68.083 88.4348 66.0047C89.6441 64.9594 90.883 63.9878 91.9241 62.8137C92.9765 61.6237 93.9061 60.39 95.0076 59.2731L95.0029 59.2458ZM41.6898 88.0494C41.7727 89.5963 42.9598 90.9597 44.6484 90.6424C46.2278 90.3437 47.4432 88.957 47.8078 87.4291C49.9205 87.5511 51.3006 86.3049 52.0183 84.7868C52.714 83.3204 52.5718 81.477 52.849 79.4888C53.6907 79.4459 54.4002 79.8616 55.1694 79.8874C57.6892 79.9902 58.9209 77.9285 59.7224 76.0473C60.1134 76.1463 60.4836 76.4851 61.0116 76.5803C61.3071 76.6309 61.6839 76.648 61.9932 76.6316C63.2617 76.569 64.5168 75.7577 65.5039 74.8911C66.7775 73.7616 67.6605 72.1252 67.3985 69.9283C67.8637 69.739 68.3122 69.5187 68.6559 69.1954C69.2496 69.6732 69.7258 70.1542 70.6652 70.238C71.6164 70.3254 72.4961 69.9638 73.0901 69.4767C74.7185 68.1374 75.565 65.2078 76.3663 63.1775C78.2645 63.0662 79.3815 61.6626 80.2573 60.3284C80.6633 59.7132 80.9251 59.1255 81.1047 58.4028C81.2812 57.7115 81.2977 56.9071 81.778 56.282C82.4514 57.5027 83.0193 59.0087 84.9198 58.9757C86.1816 58.9565 87.1099 58.0915 87.7747 57.1985C88.1788 56.6539 88.5697 55.9175 88.8091 55.2324C89.3762 53.6558 89.2246 51.7578 89.8138 50.1296C89.3167 50.0178 88.9914 49.7444 88.9602 49.3335C88.9036 48.5781 89.9549 47.6273 90.1058 46.9996C87.045 47.5941 85.5623 49.9295 84.8287 53.107C84.1635 52.4587 83.5215 51.5195 82.0014 51.5576C79.9092 51.6037 78.429 53.6096 77.6958 55.1359C76.8957 54.8482 75.9757 55.1718 75.424 55.6263C73.7349 57.0379 73.0209 60.4933 72.0289 62.5759C71.8204 62.4091 71.595 62.0624 71.3116 61.8859C69.4428 60.6786 67.4459 62.5733 66.8956 64.0514C66.5336 64.0065 66.0754 64.0231 65.7714 64.0864C64.2436 64.4072 62.7551 65.8407 62.5176 67.2905C62.2832 68.7089 62.8599 69.6931 62.7532 71.053C62.5728 71.0502 62.4944 70.7739 62.3998 70.6157C62.0041 69.9325 61.2636 69.2548 60.2702 69.2C59.6536 69.1621 58.9932 69.3765 58.5154 69.6721C56.8158 70.7114 55.8292 73.3978 55.0085 75.0207C50.9369 73.9685 47.8061 76.2515 48.0102 80.8463C47.3801 81.0246 46.6891 81.126 46.245 81.5031C45.7925 81.0293 45.2815 80.4276 44.572 80.2904C43.2436 80.0369 42.2605 80.7622 41.5612 81.4052C40.5866 82.295 39.8302 83.5553 38.9999 84.696C38.204 85.8084 37.3478 86.8635 36.3599 87.84C35.3376 88.8449 34.3114 89.7126 33.2722 90.5375C32.1641 91.4192 31.0176 92.1922 30.0496 93.0387C30.0074 93.0712 29.91 93.0935 29.9045 93.176C29.8938 93.2116 29.9252 93.2147 29.9489 93.2219C35.7983 93.6405 39.0055 91.1476 41.6862 88.0613L41.6898 88.0494ZM31.8049 114.675C31.8954 114.825 31.9119 114.578 31.9042 114.582C32.2095 114.15 32.7066 113.705 32.9571 113.133C33.1563 112.688 33.0986 112.172 33.2616 111.697C33.4467 111.17 33.8447 110.689 34.3592 110.443C35.1018 110.085 36.01 110.036 36.7055 109.535C37.0318 109.29 37.3466 108.913 37.6434 108.595C37.9592 108.257 38.2489 107.962 38.6299 107.709C39.0144 107.443 39.4172 107.267 39.8348 107.064C40.2293 106.872 40.7016 106.659 40.9929 106.424C41.698 105.847 41.8742 104.728 42.5128 104.158C42.7311 103.971 43.0596 103.805 43.3371 103.637C43.6069 103.473 43.8969 103.327 44.1589 103.167C44.6831 102.847 45.2627 102.407 45.7984 102.22C46.5396 101.952 47.5585 102.073 48.3058 101.742C49.1422 101.374 49.7913 100.34 50.5587 99.7504C51.4795 99.0386 52.8219 99.0956 53.7111 98.5101C54.6923 97.8555 55.0337 96.34 56.1916 95.8295C56.7957 95.5657 57.6978 95.5799 58.42 95.3325C59.1577 95.0767 59.9097 94.4951 60.6418 94.0434C61.374 93.5917 62.0937 93.1169 62.7718 92.6941C63.4962 92.2466 64.2402 91.7985 64.771 91.1563C65.3243 90.4821 65.7513 89.7761 66.452 89.3214C67.2686 88.8046 68.1023 88.6168 68.8112 88.1775C69.755 87.5827 70.6068 86.3708 71.6515 85.7418C72.0176 85.516 72.393 85.3448 72.8029 85.1452C73.6151 84.7501 74.2267 84.3332 74.7996 83.6584C75.3613 82.9997 75.8951 82.326 76.5762 81.8718C77.2804 81.4052 77.9988 81.0206 78.7061 80.5225C80.094 79.5507 81.4366 78.6429 82.702 77.4979C83.9406 76.3773 85.4225 75.544 86.6048 74.3739C87.2418 73.7445 87.7251 73.0879 88.3814 72.5873C89.0531 72.0785 89.913 71.8468 90.5521 71.2958C91.199 70.7405 91.3482 69.7755 91.8431 68.9735C92.4279 68.0239 93.5846 67.7527 94.5214 67.0521C94.9399 66.7386 95.2668 66.2354 95.6582 65.797C96.0271 65.3907 96.435 64.9833 96.8003 64.5888C97.5385 63.7958 98.0653 62.4595 98.8606 61.8845C99.675 61.2893 101.235 61.4187 101.735 60.5342C102.128 59.8566 102.001 58.8404 102.329 58.0783C102.815 56.9628 104.382 56.6606 105.211 55.7395C105.853 55.0275 106.435 54.0898 107.161 53.3127C107.804 52.6203 108.635 51.8875 109.379 51.1805C110.085 50.4943 111.374 50.0429 111.815 49.2894C112.212 48.6195 112.236 47.1246 112.801 46.4344C113.457 45.6357 114.963 45.5352 115.656 44.6571C116.284 43.8632 116.599 42.7995 117.287 42.0235C117.948 41.2718 118.819 40.7457 119.401 39.9765C120.017 39.1594 120.461 38.2059 121.077 37.3887C121.681 36.5876 122.322 35.8168 122.887 34.9972C123.448 34.1698 124.069 33.3996 124.696 32.5665C125.286 31.7736 125.722 30.6948 126.414 30.0756C127.133 29.4321 128.065 28.9827 128.933 28.4685C129.368 28.2054 129.868 28.0072 130.365 27.8405C130.847 27.6821 131.41 27.6194 131.885 27.3553C132.769 26.872 133.133 25.6029 134.326 25.5111C135.14 25.4533 135.771 25.8711 136.546 26.0929C137.384 26.3403 138.11 26.379 138.799 26.0697C138.704 25.892 138.475 25.8355 138.297 25.762C137.067 25.2666 135.467 24.8206 133.759 24.7306C131.835 24.6269 130.039 25.0414 128.7 25.6393C125.986 26.8635 123.712 28.9463 121.866 31.0486C120.917 32.1338 120.086 33.3843 119.073 34.4635C118.068 35.5384 117.028 36.583 116.143 37.7331C115.232 38.9271 114.42 40.1771 113.479 41.2974C112.539 42.4177 111.545 43.4766 110.592 44.5737C108.694 46.7637 106.893 49.0609 104.78 51.1666C103.754 52.1833 102.746 53.2898 101.805 54.3904C100.853 55.5071 100.004 56.6876 98.9625 57.7126C97.9175 58.7494 96.7785 59.6477 95.765 60.6876C94.7438 61.7317 93.8635 62.9091 92.8831 64.0109C91.4387 65.6196 89.6128 66.9056 88.0203 68.4047C86.4468 69.8837 84.9864 71.4811 83.2043 72.7933C82.0446 73.653 80.8167 74.4596 79.6587 75.378C77.3729 77.1787 75.0788 78.9639 72.7362 80.6956C71.561 81.5635 70.3652 82.3927 69.142 83.2267C67.9265 84.0565 66.7596 84.9398 65.5922 85.8036C63.2074 87.5678 60.7646 89.2238 58.3174 90.723C57.6816 91.1132 57.0049 91.4457 56.385 91.8472C54.5635 93.0114 52.8068 94.3896 50.9028 95.5483C49.6423 96.3127 48.3706 97.093 47.0901 97.8383C45.8054 98.5759 44.4911 99.2398 43.1868 99.9779C41.9289 100.691 40.7543 101.579 39.5482 102.463C38.3998 103.307 37.2169 104.179 36.1791 105.192C35.1645 106.193 34.3886 107.454 33.6454 108.906C32.7128 110.728 31.6251 112.334 31.8126 114.671L31.8049 114.675ZM44.1439 124.448C44.6104 125.004 46.5661 125.538 46.4995 124.152C45.8647 123.467 44.6349 124.066 44.1439 124.448ZM53.5799 129.709C53.8378 130.098 54.5491 130.851 55.356 130.688C55.5899 130.642 55.9259 130.323 55.9093 130.014C55.8511 129.199 54.0748 129.464 53.5799 129.709ZM62.1812 127.342C61.2818 126.869 60.396 127.572 59.9397 128.074C60.6124 128.57 62.5404 128.681 62.1812 127.342ZM61.6768 121.555C62.6791 121.923 63.3993 120.911 63.705 120.35C62.6426 120.073 61.2668 120.362 61.6768 121.555ZM68.9052 47.4607C68.9609 47.7689 69.2172 48.0991 69.4225 48.4268C69.9851 49.329 70.6287 50.327 71.2007 51.2838C71.4112 51.1015 71.6625 50.9769 71.8327 50.7565C70.9181 49.6052 69.8352 48.6037 68.9093 47.4684L68.9052 47.4607ZM65.1587 127.687C66.3356 128.27 66.7005 126.613 66.3843 125.688C65.7355 126.035 64.9145 126.674 65.1587 127.687ZM74.8438 118.712C73.9086 118.636 72.7199 118.606 72.643 119.632C73.387 120.576 74.5964 119.531 74.8438 118.712ZM72.9666 120.682C73.1815 120.935 73.538 121.062 73.7797 121.291C73.9289 121.161 74.1085 120.995 74.269 120.85C74.4141 120.712 74.6376 120.573 74.6249 120.401C74.1211 120.332 73.6687 120.972 72.9708 120.69L72.9666 120.682ZM74.1544 123.179C75.4066 123.513 75.438 121.845 75.1535 121.072C75.1022 120.921 74.9242 121.145 74.863 121.198C74.4302 121.559 73.6652 122.376 74.1544 123.179ZM84.3701 115.64C84.3527 115.719 84.4115 115.718 84.4096 115.788C84.758 116.049 86.5225 116.616 86.6999 115.815C86.7801 115.464 86.4764 115.119 86.1762 115.041C85.3861 114.828 84.7961 115.452 84.3665 115.652L84.3701 115.64ZM89.846 49.1874C89.846 49.1874 89.8667 49.226 89.8904 49.2332C94.2807 50.0452 96.0847 46.4537 97.0876 43.0922C97.4562 43.3723 97.6573 43.6922 98.0314 43.8898C99.3286 44.5677 100.747 43.9676 101.532 43.3183C102.681 42.3649 103.629 40.813 104.37 39.1531C105.137 37.4297 105.73 35.5111 106.055 33.7059C109.284 34.5931 111.324 30.6264 110.243 27.7345C110.518 27.8955 110.807 28.2875 111.241 28.3932C112.406 28.6747 113.351 27.7308 113.528 26.7807C113.692 25.9173 113.606 24.9587 113.713 24.0263C113.815 23.1763 113.944 22.3413 114.121 21.5206C114.514 19.7487 115.057 18.4238 115.817 17.5791C114.22 17.9371 112.925 18.8593 112.036 20.1507C111.482 20.9543 111.105 21.7727 111.05 23.0057C110.568 22.8661 110.068 22.5074 109.438 22.4071C107.063 22.0375 105.508 23.7552 105.147 25.6987C102.343 25.9175 101.923 28.549 101.351 31.3612C100.855 33.7752 100.344 36.2171 99.5699 37.8348C96.9976 36.1489 94.6136 38.6386 93.628 40.5289C93.174 41.3886 92.8805 42.3811 92.5363 43.5202C91.8729 45.7152 90.7892 47.7376 89.8645 49.1476C89.8728 49.1631 89.8615 49.1791 89.862 49.1987L89.846 49.1874ZM116.185 109.963C116.104 109.44 115.8 108.966 115.557 108.53C114.809 107.17 113.837 105.93 112.942 104.649C110.009 100.451 106.811 96.335 103.587 92.2629C103.307 91.9059 102.993 91.4871 102.616 91.0426C102.283 90.6439 101.897 90.0349 101.5 89.9988C101.261 89.978 100.943 90.1084 100.916 90.3915C100.882 90.867 101.374 91.3398 101.684 91.79C104.964 96.4488 108.46 100.992 111.999 105.392C113.303 107.011 114.565 108.663 116.166 109.964L116.185 109.963ZM101.791 98.2074C102.931 98.6112 103.142 96.9071 102.79 96.1011C102.753 95.9021 102.619 96.1725 102.596 96.1849C102.171 96.5222 101.269 97.3629 101.791 98.2074ZM102.284 105.124C103.198 105.291 103.648 104.294 103.957 103.572C103.212 103.702 101.836 104.121 102.284 105.124ZM108.429 95.7372C108.726 95.9957 109.031 96.2304 109.428 96.3959C109.595 96.0579 109.891 95.8497 110.211 95.6879C110.149 95.5523 109.998 95.4938 109.901 95.3866C109.431 95.5291 109.012 95.7132 108.437 95.7331L108.429 95.7372ZM108.894 94.9713C109.723 94.7562 110.801 94.3381 110.615 93.3235C109.602 92.7123 108.913 93.8569 108.894 94.9713ZM109.456 97.6737C110.222 97.6015 111.178 97.3084 111.39 96.4593C110.605 95.5868 109.72 97.035 109.456 97.6737ZM109.515 98.378C109.54 98.5538 109.667 98.6248 109.722 98.7645C110.017 98.6661 110.142 98.3803 110.405 98.2397C110.188 98.1868 109.862 98.4312 109.507 98.3822L109.515 98.378ZM125.433 81.0534C125.144 81.0692 124.486 81.8091 124.387 82.3099C124.294 82.787 124.502 83.3421 124.992 83.3286C125.771 83.2992 125.686 81.6739 125.433 81.0534ZM129.331 70.6621C129.896 70.6778 130.963 70.1267 130.985 69.3887C130.99 69.1376 130.83 68.7655 130.55 68.7065C129.821 68.5698 129.4 69.9189 129.327 70.6543L129.331 70.6621ZM129.682 77.6649C130.231 78.2262 132.323 78.4586 131.962 77.0802C131.16 76.5651 130.199 77.2388 129.682 77.6649ZM132.067 73.0062C131.461 72.8034 130.191 73.066 130.019 73.6551C129.937 73.9476 130.016 74.3729 130.262 74.4603C131.022 74.749 131.787 73.5042 132.067 73.0062ZM133.064 71.9354C133.721 72.5683 135.517 72.5813 135.38 71.4909C135.354 71.2563 134.967 71.1454 134.552 71.1687C133.965 71.2045 133.413 71.659 133.064 71.9354ZM140.324 66.3575C140.688 65.6258 141.018 63.9772 139.687 64.0729C139.118 64.5867 139.541 65.4143 139.828 65.8574C139.988 66.1001 140.133 66.3902 140.32 66.3497L140.324 66.3575ZM141.401 61.7232C142.62 62.1444 142.779 60.5477 142.533 59.625C141.974 59.9346 140.9 60.788 141.401 61.7232ZM145.511 53.7341C145.063 53.9544 144.47 56.022 145.253 56.1102C146.441 56.2499 146.107 54.2902 145.511 53.7341ZM146.712 51.2614C147.124 51.8462 147.721 52.7199 148.756 52.4442C149.377 51.2465 147.621 50.9539 146.712 51.2614ZM149.493 42.5522C150.853 42.8283 150.656 40.9943 150.311 40.294C149.77 40.6933 148.944 41.732 149.493 42.5522Z" fill="white"/>
<path fill-rule="evenodd" clip-rule="evenodd" d="M34.478 91.7115C34.4873 91.7662 34.5218 91.7378 34.529 91.7141C36.5748 91.1358 38.2148 89.9295 39.5638 88.5509C40.9127 87.1722 42.156 85.522 42.8665 83.4707C40.3496 86.5289 37.7759 89.5181 34.4857 91.7074L34.478 91.7115Z" fill="white"/>
<path fill-rule="evenodd" clip-rule="evenodd" d="M37.3916 120.913C38.31 120.252 40.5446 120.528 40.0486 122.126C41.3727 124.729 43.363 126.905 45.5761 128.644C45.889 128.894 46.2316 129.089 46.4755 129.396C46.2104 129.309 45.8272 129.206 45.5069 129.109C45.1985 129.015 44.8247 128.967 44.5816 128.829C44.3824 128.716 44.103 128.399 43.8696 128.185C42.1706 126.609 40.7652 124.596 39.8972 122.455C39.692 122.963 39.1309 123.085 38.594 123.233C39.7316 125.06 41.2015 126.581 42.8058 127.999C42.1233 127.708 41.5425 127.273 40.9891 126.834C40.4434 126.39 39.8591 125.967 39.4168 125.438C38.8402 124.732 38.5221 123.878 37.9871 123.12C37.328 122.966 36.1558 122.41 36.1729 121.904C36.198 121.264 37.2471 121.348 37.2614 120.744C37.2987 120.813 37.2978 120.923 37.3963 120.94L37.3916 120.913ZM37.0662 121.883C37.3663 122.239 38.5968 122.774 39.1562 122.315C39.5242 122.019 39.4911 121.4 38.9779 121.277C38.1925 121.091 37.507 121.667 37.0739 121.879L37.0662 121.883Z" fill="white"/>
<path fill-rule="evenodd" clip-rule="evenodd" d="M59.3887 120.492C60.1136 122.978 61.8735 124.91 63.8676 126.389C64.1876 126.337 64.3696 126.12 64.6814 126.052C62.5068 124.571 60.7296 122.718 59.3846 120.485L59.3887 120.492Z" fill="white"/>
<path fill-rule="evenodd" clip-rule="evenodd" d="M78.2725 114.907C78.6196 115.258 79.0017 115.601 79.4481 115.859C79.4969 115.226 79.8974 114.972 80.2133 114.634C79.7923 114.163 79.323 113.509 79.1776 112.941C79.4198 113.189 79.6791 113.488 79.9735 113.777C80.2436 114.041 80.552 114.413 80.8729 114.529C81.0313 114.584 81.2136 114.516 81.3441 114.555C81.7469 114.658 82.0261 115.105 82.0918 115.488C82.4592 115.729 82.8303 115.958 83.2816 116.114C83.1084 116.366 82.8179 116.491 82.5476 116.636C82.387 116.503 82.1765 116.407 82.0005 116.282C81.8733 116.639 81.7053 116.938 81.4852 117.195C81.4648 117.305 81.6163 117.254 81.6149 117.344C81.0433 117.65 80.6458 118.152 79.9688 118.335C79.5202 117.998 79.4575 117.306 79.3491 116.658C78.4621 115.929 77.6333 114.901 77.2895 113.832C77.598 114.204 77.9337 114.571 78.2648 114.911L78.2725 114.907ZM80.2077 117.352C80.1997 117.485 80.5492 117.229 80.6408 117.14C81.0303 116.772 81.6879 115.903 81.2067 115.245C80.0627 114.854 79.8592 116.534 80.2077 117.352Z" fill="white"/>
<path fill-rule="evenodd" clip-rule="evenodd" d="M86.8394 112.25C86.7249 111.943 86.2051 111.585 86.2776 111.238C86.34 110.946 86.6741 110.976 86.9593 110.803C86.6042 110.307 86.0475 109.75 85.968 109.156C86.1699 109.366 86.4216 109.669 86.7272 109.943C86.9245 110.126 87.396 110.579 87.6291 110.644C87.8225 110.689 88.0517 110.616 88.2363 110.627C89.3437 110.69 90.1537 111.331 90.0757 112.317C90.0095 113.029 89.442 113.621 88.3394 113.307C88.1948 113.463 88.0094 113.563 87.808 113.651C86.2719 112.842 84.9278 111.612 84.3363 110.099C85.0955 110.886 85.9005 111.629 86.8548 112.242L86.8394 112.25ZM87.1585 111.472C87.5679 112.089 88.2246 112.851 89.2031 112.655C89.9029 111.475 88.0769 111.09 87.1585 111.472Z" fill="white"/>
<path fill-rule="evenodd" clip-rule="evenodd" d="M87.5117 108.16C88.0655 109.584 89.3291 110.738 90.7126 111.558C90.9515 111.411 91.1419 111.209 91.389 111.077C89.8736 110.307 88.6067 109.314 87.5117 108.16Z" fill="white"/>
<path fill-rule="evenodd" clip-rule="evenodd" d="M89.1121 107.214C89.6322 108.556 90.8359 109.672 92.1323 110.46C92.476 110.415 92.6214 110.148 92.9041 110.027C91.3939 109.304 90.209 108.297 89.1079 107.206L89.1121 107.214Z" fill="white"/>
<path fill-rule="evenodd" clip-rule="evenodd" d="M90.6549 106.218C91.1869 107.564 92.3757 108.708 93.7184 109.471C94.0296 109.384 94.2194 109.163 94.4903 109.038C92.9569 108.327 91.7601 107.317 90.6549 106.218Z" fill="white"/>
<path fill-rule="evenodd" clip-rule="evenodd" d="M99.6376 99.9765C100.1 101.231 101.243 102.27 102.433 103.025C102.704 102.919 102.874 102.699 103.109 102.544C101.726 101.892 100.649 100.956 99.6376 99.9765Z" fill="white"/>
<path fill-rule="evenodd" clip-rule="evenodd" d="M128.791 77.5242C128.294 77.9694 127.787 78.3403 127.09 78.6538C127.141 78.7857 127.326 78.7963 127.357 78.9484C127.18 79.0435 127.112 79.2689 126.914 79.345C126.76 79.1689 126.648 78.9602 126.467 78.8083C124.029 79.0993 124.712 75.7898 126.699 76.1976C126.704 76.0955 126.451 76.0123 126.571 75.958C127.211 76.3914 129 76.5968 128.791 77.5242ZM125.683 77.975C126.534 78.375 127.391 77.7669 127.916 77.3367C127.361 76.7284 125.151 76.6092 125.683 77.975Z" fill="white"/>
<path fill-rule="evenodd" clip-rule="evenodd" d="M145.211 44.0192C145.858 44.7072 146.939 45.65 147.575 46.3932C148.033 45.5216 147.103 45.0846 146.584 44.7459C146.093 44.4223 145.592 44.1733 145.219 44.015L145.211 44.0192Z" fill="white"/>
<path fill-rule="evenodd" clip-rule="evenodd" d="M145.726 42.1231C146.322 42.8086 147.28 43.5587 147.957 44.34C147.933 44.0544 148.042 43.9063 148.039 43.6397C147.47 42.9494 146.611 42.5143 145.722 42.1153L145.726 42.1231Z" fill="white"/>
</g>
<defs>
<clipPath id="clip0_12465_13658">
<rect width="91.7189" height="148.599" fill="white" transform="translate(43.2939 151) rotate(-118.166)"/>
</clipPath>
</defs>
</svg>
